<?xml version="1.0" encoding="UTF-8" standalone="no"?>
<!-- Created with Inkscape (http://www.inkscape.org/) -->

<svg
   version="1.1"
   id="svg9"
   width="220"
   height="220"
   viewBox="0 0 220 220"
   sodipodi:docname="three.svg"
   inkscape:version="1.1 (c68e22c387, 2021-05-23)"
   xmlns:inkscape="http://www.inkscape.org/namespaces/inkscape"
   xmlns:sodipodi="http://sodipodi.sourceforge.net/DTD/sodipodi-0.dtd"
   xmlns="http://www.w3.org/2000/svg"
   xmlns:svg="http://www.w3.org/2000/svg">
  <defs
     id="defs13" />
  <sodipodi:namedview
     id="namedview11"
     pagecolor="#ffffff"
     bordercolor="#666666"
     borderopacity="1.0"
     inkscape:pageshadow="2"
     inkscape:pageopacity="0.0"
     inkscape:pagecheckerboard="0"
     showgrid="false"
     inkscape:zoom="0.35355339"
     inkscape:cx="65.053824"
     inkscape:cy="173.94827"
     inkscape:window-width="1350"
     inkscape:window-height="729"
     inkscape:window-x="0"
     inkscape:window-y="0"
     inkscape:window-maximized="0"
     inkscape:current-layer="g15"
     inkscape:lockguides="false"
     height="220px"
     width="10000000px" />
  <g
     inkscape:groupmode="layer"
     id="layer2"
     inkscape:label="Image 2"
     style="display:inline" />
  <g
     inkscape:groupmode="layer"
     id="layer1"
     inkscape:label="Image 1"
     style="display:inline" />
  <g
     inkscape:groupmode="layer"
     inkscape:label="Image"
     id="g15"
     style="display:inline">
    <g
       id="g17871"
       transform="translate(-593.96969,-277.18586)">
      <path
         style="fill:#000000"
         d="m 377.48736,336.12405 v -30.26071 l 17.5,-17.47857 17.5,-17.47857 17.5,17.47857 17.5,17.47857 v 30.26071 30.26072 h -35 -35 z m 60,10.26072 v -10 h -17.5 -17.5 v -7.5 -7.5 h 17.5 17.5 v -5.76501 -5.765 l -12.5,-12.46999 -12.5,-12.46999 -12.5,12.46999 -12.5,12.46999 v 23.265 23.26501 h 25 25 z m -296.97974,-44.4797 -13.45195,-13.47969 3.43007,-3.53894 3.43007,-3.53894 10.05285,10.01864 c 5.52907,5.51024 10.49973,10.01863 11.04591,10.01863 0.54619,0 9.3072,-8.32326 19.46892,-18.49613 l 18.47586,-18.49612 -10.4499,-10.48558 -10.44989,-10.48558 3.43017,-3.53904 3.43018,-3.53904 13.78688,13.7605 13.78689,13.76051 -25.74595,25.76024 c -14.16027,14.16813 -25.98044,25.76024 -26.26705,25.76024 -0.28661,0 -6.57449,-6.06586 -13.97306,-13.4797 z m 216.69607,-20.30361 -14.75867,-14.78332 3.54217,-3.43321 3.54218,-3.43321 14.9617,14.93676 14.96171,14.93676 -3.17888,3.27976 c -1.74838,1.80388 -3.43373,3.27977 -3.74521,3.27977 -0.31149,0 -7.20774,-6.65249 -15.325,-14.78331 z m 29.92583,-1.83924 c -0.31543,-1.0326 -3.52158,-12.87118 -7.12478,-26.30796 -5.05534,-18.85199 -6.26198,-24.61427 -5.28433,-25.23529 1.49471,-0.94945 7.70507,-2.23871 8.20931,-1.70424 0.19201,0.20352 3.13571,10.89874 6.54156,23.76715 l 6.19246,23.3971 -3.98035,3.98035 c -3.49649,3.49649 -4.05007,3.75212 -4.55387,2.10289 z m 46.03167,-2.19943 -3.81091,-3.90273 6.31394,-23.72621 6.31394,-23.72621 4.0046,0.63975 c 2.20253,0.35186 4.35723,0.99185 4.78822,1.42218 0.67488,0.67386 -10.93152,46.42593 -13.04058,51.40558 -0.66577,1.57192 -1.22328,1.31418 -4.56921,-2.11236 z m -323.94174,-6.94414 -6.71427,-6.76611 25.98125,-25.96684 25.98124,-25.96683 7.01494,6.96119 7.01494,6.96118 -3.48622,3.48623 -3.48622,3.48622 -3.54121,-3.43228 -3.54121,-3.43227 -18.9617,18.942 -18.96171,18.942 3.4899,3.57397 3.48989,3.57398 -3.30346,3.20184 c -1.81691,1.76101 -3.51911,3.20184 -3.78268,3.20184 -0.26356,0 -3.50063,-3.04475 -7.19348,-6.76612 z m 298.26791,-34.05957 v -25.17431 h 5 5 v 25.17431 25.17432 l -2.5,-2.34863 -2.5,-2.34863 -2.5,2.34863 -2.5,2.34863 z M 88.487364,221.4202 v -20.07956 l 18.749996,0.27206 18.75,0.27207 0.30479,4.75 0.30479,4.75 H 112.06888 97.540834 l -0.27674,14.75 -0.27673,14.75 -4.25,0.3075 -4.25,0.3075 z m 201.477516,-2.01289 11.94626,-11.97746 -7.81847,-7.27254 c -15.29493,-14.22695 -24.79276,-18.32621 -42.10531,-18.17259 -18.55116,0.1646 -26.13282,3.91711 -44.55062,22.05012 l -12.55062,12.35656 -3.44938,-3.57299 -3.44938,-3.57298 13.59147,-13.32502 c 11.87055,-11.63783 14.65614,-13.83721 22,-17.37016 10.96733,-5.27613 22.56512,-7.64066 33.39394,-6.80829 16.77634,1.28953 28.44163,6.8214 42.27772,20.04878 l 9.35577,8.94418 11.94055,-11.90944 11.94055,-11.90945 v 27.23437 27.23437 H 305.25299 278.01862 Z M 69.146574,207.13477 c -0.35854,-7.8375 -0.65354,-16.6125 -0.65555,-19.5 l -0.004,-5.25 h 19.5 19.499996 v 4.5 4.5 H 93.133764 78.780494 l -0.64673,7.65088 c -0.35571,4.20798 -0.64674,10.95798 -0.64674,15 v 7.34912 h -3.84445 -3.84445 z"
         id="path17020"
         sodipodi:nodetypes="ccccccccccccccccccccccccccccccscccssscccccccsssscccccsssssssscssscccssssscccccccccccccsssccccccccccccccccccccccccccssscccsssscccccccccccccccccsscccc" />
      <path
         id="path17364"
         style="fill:#000000"
         d="m 247.48828,-66.027344 c -11.66591,-0.01705 -14.84723,0.352787 -23.41406,2.716797 -31.51831,8.69745 -53.82824,30.358618 -63.23438,61.3984376 -2.30033,7.591 -2.67321,10.647075 -2.72461,22.2968754 -0.0735,16.66811 1.46624,23.317808 8.9336,38.574218 4.31599,8.81793 6.98603,12.760226 13.11133,19.353516 9.12105,9.81794 15.82439,14.955523 26.1875,20.070312 9.19096,4.536268 15.92812,6.790068 25.48046,8.523438 28.51094,5.17359 59.43896,-4.56004 80.08204,-25.203125 34.30472,-34.30472 34.0366,-88.0838531 -0.60938,-121.970703 -18.15814,-17.76028 -37.88029,-25.721866 -63.8125,-25.759766 z m 1.24805,7.451172 c 6.79368,0.09788 13.5962,0.774483 18.75195,2.007813 24.9016,5.9568 46.57814,24.108602 55.95899,46.8574215 8.12329,19.699182 8.16126,42.0331215 0.10156,61.2324215 -10.60796,25.26962 -37.94071,45.863139 -64.14649,48.330078 -3.52796,0.332128 -7.98906,0.745838 -9.91406,0.917968 -4.52472,0.4046 -16.24813,-0.831448 -22,-2.318358 -17.20024,-4.4464 -32.9172,-14.179746 -43.70312,-27.066406 -7.27551,-8.69253 -14.72496,-24.115506 -16.87891,-34.947266 -2.22379,-11.18299 -1.52222,-27.6714824 1.59961,-37.5527344 9.13635,-28.9184996 32.01761,-49.7410376 61.52734,-55.9921876 5.12307,-1.08524 11.90944,-1.566627 18.70313,-1.46875 z m -55.24805,31.960938 v 2.5 2.5 h 11.58594 11.58789 l 12.125,11.5 c 6.66833,6.3249996 12.42295,11.4999996 12.78906,11.4999996 0.36611,0 1.27602,-0.73458248 2.02149,-1.63281248 1.19729,-1.44266002 -0.15832,-3.07229682 -11.62696,-13.96679712 l -12.98242,-12.332031 -12.75,-0.03516 z m 108,0 -12.75,0.05078 -12.75,0.05078 -12.93555,12.373047 c -11.21355,10.72687 -12.76239,12.5834388 -11.6289,13.94921875 0.71913,0.8665 1.77456,1.57617185 2.34375,1.57617185 0.56918,0 6.27386,-5.175 12.67773,-11.4999996 l 11.64258,-11.5 h 11.70117 11.69922 v -2.5 z m -118,15 v 2.4999996 2.5 h 12.69141 12.69336 L 219.16992,3.515625 c 8.69727,8.558572 10.53013,9.938316 11.80664,8.878906 0.83113,-0.68978 1.50219,-1.762662 1.49219,-2.382812 -0.01,-0.6201603 -4.92229,-5.7394534 -10.91797,-11.3769534 L 210.64844,-11.615234 h -13.58008 z m 100.68164,0 -10.5918,10.2499996 c -5.82497,5.6375 -10.75036,10.61514 -10.94531,11.0625 -0.19495,0.4473504 0.48005,1.4362454 1.5,2.1972654 1.69062,1.26143 2.73905,0.505722 11.8711,-8.5624998 l 10.01757,-9.9472656 h 12.73243 12.73437 v -2.5 -2.4999996 h -13.66016 z m -39.18164,60.5 c -4.08178,0 -5.06811,0.451492 -8.01758,3.669922 -3.6754,4.010559 -5.06533,8.913531 -4.05468,14.300781 0.72224,3.84986 4.78028,9.237052 7.99023,10.607422 3.83852,1.63872 8.87246,0.217969 12.27148,-3.462891 5.6936,-6.16569 5.62061,-15.122482 -0.17382,-21.445312 -2.94947,-3.21843 -3.93385,-3.669922 -8.01563,-3.669922 z"
         sodipodi:nodetypes="ssscsssssssssssssssssssccccccssccccccccssccccccccccccssccccccssccccccccsssssss" />
    </g>
    <path
       style="fill:#000000"
       d="M 75.000005,147.5 V 110 h 12.73958 12.739575 L 82.717405,92.21766 64.955655,74.43532 l 3.54375,-3.43474 3.54376,-3.43474 16.47842,16.45572 L 105,100.47727 V 67.73864 35 h 5 5 v 32.73864 32.73863 l 16.47843,-16.45571 16.4784,-16.45572 3.54377,3.43474 3.54375,3.43474 L 137.2826,92.21766 119.52084,110 H 134.76042 150 V 147.5 185 H 112.5 75.000005 Z M 140,147.5 V 120 H 112.5 85.000005 V 147.5 175 H 112.5 140 Z"
       id="path17885" />
    <path
       style="fill:#000000"
       d="m -426.30822,466.79098 v -57.5 h -5 -5 v 10 10 h -5 -5 v -15 -15 h 15 15 v 25 25 h 15 15 v -25 -25 h -5 -5 v 10 10 h -5 -5 v -15 -15 h 15 15 v 30 30 h 12.49999 12.5 v 37.5 37.5 h -37.49999 -37.5 z"
       id="path18007" />
    <path
       style="fill:#000000"
       d="m 140.8685,610.07095 c -21.16951,-5.34916 -35.11311,-28.44377 -29.28252,-48.50027 2.45384,-8.44091 4.80241,-12.59082 10.34727,-18.2835 19.4968,-20.01662 52.32425,-14.1303 64.4962,11.56487 2.89373,6.1087 3.19313,7.63152 3.19313,16.24075 0,8.60923 -0.2994,10.13205 -3.19313,16.24075 -6.55978,13.84779 -19.3702,22.61831 -34.05764,23.31723 -4.26208,0.20282 -9.43857,-0.0581 -11.50331,-0.57983 z m 9.25408,-39.10596 v -30.12781 l -4.20752,0.67281 c -9.89499,1.58228 -19.01286,8.45682 -23.12263,17.43364 -2.96689,6.48048 -2.95716,17.83852 0.0209,24.34553 4.22192,9.22494 15.78856,17.58535 24.55927,17.75153 l 2.74998,0.0521 z M -14.877422,568.5928 v -37.5 H 2.6225781 20.122578 v -22.5 -22.5 h 5 5 v 22.5 22.5 h 15 15 v 37.5 37.5 h -37.5 -37.5 z m 65,0 v -27.5 h -27.5 -27.4999999 v 27.5 27.5 h 27.4999999 27.5 z"
       id="path18130" />
  </g>
</svg>
