<?xml version="1.0" encoding="UTF-8" standalone="no"?>
<!-- Created with Inkscape (http://www.inkscape.org/) -->

<svg
   version="1.1"
   id="svg9"
   width="220"
   height="150"
   viewBox="0 0 220 150"
   sodipodi:docname="gesture-scissors.svg"
   inkscape:version="1.1 (c68e22c387, 2021-05-23)"
   xmlns:inkscape="http://www.inkscape.org/namespaces/inkscape"
   xmlns:sodipodi="http://sodipodi.sourceforge.net/DTD/sodipodi-0.dtd"
   xmlns="http://www.w3.org/2000/svg"
   xmlns:svg="http://www.w3.org/2000/svg">
  <defs
     id="defs13" />
  <sodipodi:namedview
     id="namedview11"
     pagecolor="#ffffff"
     bordercolor="#666666"
     borderopacity="1.0"
     inkscape:pageshadow="2"
     inkscape:pageopacity="0.0"
     inkscape:pagecheckerboard="0"
     showgrid="false"
     inkscape:zoom="0.43416667"
     inkscape:cx="168.1382"
     inkscape:cy="88.675624"
     inkscape:window-width="1350"
     inkscape:window-height="729"
     inkscape:window-x="0"
     inkscape:window-y="0"
     inkscape:window-maximized="0"
     inkscape:current-layer="g15" />
  <g
     inkscape:groupmode="layer"
     id="layer1"
     inkscape:label="Image 1"
     style="display:inline" />
  <g
     inkscape:groupmode="layer"
     inkscape:label="Image"
     id="g15"
     style="display:inline">
    <g
       id="g283"
       transform="matrix(0.86270252,0,0,0.84693037,206.20127,359.25405)">
      <path
         style="fill:#000000"
         d="m -112.51152,-361.62859 c 14.292073,-14.3 26.467133,-26 27.055703,-26 0.58856,0 2.37556,1.36259 3.9711,3.02797 l 2.90098,3.02798 -22.955743,22.97202 -22.95573,22.97203 h -7.00095 -7.00094 z"
         id="path248" />
      <path
         style="fill:#000000"
         d="m -149.01152,-373.12859 v -37.5 h 5 5 v 37.5 37.5 h -5 -5 z"
         id="path246" />
      <path
         style="fill:#000000"
         d="m -149.01152,-293.12859 v -32.5 h 37.5 37.500003 v 32.5 32.5 h -37.500003 -37.5 z"
         id="path244" />
    </g>
    <g
       id="g278"
       transform="matrix(0.86270252,0,0,0.84693037,409.35873,-22.062342)">
      <path
         style="fill:#000000"
         d="m -122.01152,-99.45428 v -21.17431 h 5 5 v 21 c 0,11.55 -0.38026,21 -0.84501,21 -0.46476,0 -1.66582,-0.90698 -2.66903,-2.01552 l -1.82402,-2.01552 -2.33097,2.18984 -2.33097,2.18983 z"
         id="path242" />
      <path
         style="fill:#000000"
         d="m -97.870097,-63.98268 -3.250913,-3.35409 9.694453,-16.39591 c 5.33195,-9.01775 9.78398,-16.5108 9.89339,-16.65122 0.54004,-0.69307 8.50952,4.39674 8.28347,5.29035 -0.50381,1.99168 -19.98125,34.46496 -20.67205,34.46496 -0.38359,0 -2.16035,-1.50934 -3.94835,-3.35409 z"
         id="path240" />
      <path
         style="fill:#000000"
         d="m -150.73095,-76.0569 c -5.62068,-9.56354 -10.34568,-17.95831 -10.5,-18.65503 -0.15431,-0.69672 1.53802,-2.2949 3.76074,-3.55151 l 4.0413,-2.28476 9.9587,16.6087 c 5.47728,9.13478 10.12168,17.03067 10.3209,17.54642 0.35115,0.90913 -5.69342,7.78478 -6.80838,7.74447 -0.30461,-0.011 -5.15257,-7.84475 -10.77326,-17.40829 z"
         id="path238" />
      <path
         style="fill:#000000"
         d="m -86.011517,-38.33355 v -6.90568 l 11.52284,-11.36871 11.52284,-11.36871 3.47716,3.3702 c 1.91244,1.85361 3.47716,3.67189 3.47716,4.04064 0,0.36874 -6.75,7.07563 -15,14.90419 l -15,14.23374 z"
         id="path236" />
      <path
         style="fill:#000000"
         d="m -161.49214,-13.60917 -11.94936,-11.98057 3.42837,-3.53718 3.42837,-3.53719 9.28662,9.24801 9.28662,9.24801 v 6.2697496 c 0,3.448364 -0.34453,6.269754 -0.76563,6.269754 -0.4211,0 -6.14285,-5.391264 -12.71499,-11.9805836 z"
         id="path234" />
      <path
         style="fill:#000000"
         d="M -143.01152,-7.8646904 V -50.10078 l 12.65879,-12.68695 12.65879,-12.68695 12.83618,12.17304 12.836183,12.17305 0.005,42.7499996 0.005,42.7500044 h -25.500003 -25.5 z"
         id="path232" />
    </g>
    <g
       id="g270"
       transform="matrix(0.86270252,0,0,0.84693037,218.02953,-267.14429)">
      <path
         style="fill:#000000"
         d="m -169.01152,244.37141 v -20 h 37.5 37.500003 v 20 20 h -37.500003 -37.5 z"
         id="path128" />
      <path
         style="fill:#000000"
         d="m -169.01152,199.37141 v -10 h 37.5 37.500003 v 10 10 h -37.500003 -37.5 z"
         id="path230" />
    </g>
  </g>
</svg>
