<?xml version="1.0" encoding="UTF-8" standalone="no"?>
<!-- Created with Inkscape (http://www.inkscape.org/) -->

<svg
   version="1.1"
   id="svg9"
   width="220"
   height="220"
   viewBox="0 0 220 220"
   sodipodi:docname="play.svg"
   inkscape:version="1.1 (c68e22c387, 2021-05-23)"
   xmlns:inkscape="http://www.inkscape.org/namespaces/inkscape"
   xmlns:sodipodi="http://sodipodi.sourceforge.net/DTD/sodipodi-0.dtd"
   xmlns="http://www.w3.org/2000/svg"
   xmlns:svg="http://www.w3.org/2000/svg">
  <defs
     id="defs13" />
  <sodipodi:namedview
     id="namedview11"
     pagecolor="#ffffff"
     bordercolor="#666666"
     borderopacity="1.0"
     inkscape:pageshadow="2"
     inkscape:pageopacity="0.0"
     inkscape:pagecheckerboard="0"
     showgrid="false"
     inkscape:zoom="0.64"
     inkscape:cx="-12.5"
     inkscape:cy="-16.40625"
     inkscape:window-width="1350"
     inkscape:window-height="729"
     inkscape:window-x="0"
     inkscape:window-y="0"
     inkscape:window-maximized="0"
     inkscape:current-layer="g15"
     inkscape:lockguides="false"
     height="220px"
     width="10000000px" />
  <g
     inkscape:groupmode="layer"
     id="layer2"
     inkscape:label="Image 2"
     style="display:inline" />
  <g
     inkscape:groupmode="layer"
     id="layer1"
     inkscape:label="Image 1"
     style="display:inline" />
  <g
     inkscape:groupmode="layer"
     inkscape:label="Image"
     id="g15"
     style="display:inline">
    <path
       style="fill:#000000"
       d="m 319.41211,344.75195 v 1.62305 h 1.75391 c -0.584,-0.54168 -1.17021,-1.08105 -1.75391,-1.62305 z"
       id="path19450" />
    <path
       style="fill:#000000"
       d="m 487.8418,307.27734 1.47461,1.59766 0.002,-1.38086 c -0.49219,-0.0722 -0.98437,-0.14457 -1.47656,-0.2168 z"
       id="path19446" />
    <g
       id="g21951"
       transform="matrix(0.7412323,0,0,0.7412323,-156.07272,116.28795)">
      <path
         id="path20800"
         style="fill:#000000"
         d="m 467.36523,-125.09375 v 16.79297 16.791014 l -14.75,-14.695314 -14.75,-14.69531 -24,23.410156 -24,23.408203 -19.25,0.04883 -19.25,0.04883 v 4.5 4.5 l 17.75,0.01367 17.75,0.01172 25.5,24.90625 25.5,24.90625 26.57813,-26.490235 26.57812,-26.490234 -6.80859,-6.574219 -6.81055,-6.574219 -0.26757,-21.603522 -0.26954,-21.60547 -4.75,-0.30468 z m -29.5,18.26953 19.49415,19.416017 19.49218,19.417969 -18.98242,19.003906 c -10.44098,10.451845 -19.43871,18.996281 -19.99414,18.988281 -0.55543,-0.008 -9.68633,-8.639113 -20.29102,-19.179687 l -19.28125,-19.164063 19.78125,-19.242187 z m -187.5,26.73047 -4.75,0.304688 -4.75,0.304687 -0.19335,21.417969 -0.19141,21.416015 -6.79102,6.84375 -6.79101,6.841797 26.41015,26.4238284 26.41016,26.4238276 25.57227,-24.9003901 25.57421,-24.9003909 17.75,-0.0332 17.75,-0.0332 v -4.5 -4.5 H 347.2793 328.19531 L 304.03516,-52.476562 279.875,-75.96875 l -14.75586,14.730469 -14.75391,14.728515 v -16.791015 z m 29.33594,18.255859 19.85352,19.111329 c 10.91971,10.511504 19.73155,19.381287 19.58203,19.710937 -0.14951,0.32965 -9.07318,9.225328 -19.83008,19.7675781 L 279.75,15.919922 260.31641,-3.5332031 240.88477,-22.984375 l 19.4082,-19.427734 z" />
      <path
         id="path20800-1"
         style="display:inline;fill:#000000;stroke-width:0.603448"
         d="m 417.95287,5.5685749 c -2.32698,-0.0036 -4.66012,0.258377 -5.92604,0.787311 -4.31066,1.801111 -8.0322,8.0236211 -9.73884,16.2860141 -1.30395,6.312798 -1.34242,34.415634 -0.0565,41.135796 1.49776,7.828108 4.55973,13.250558 9.06939,16.060898 1.37665,0.85791 2.97463,1.12966 6.66857,1.13147 4.20492,0.002 5.18137,-0.20753 7.26612,-1.5593 1.32459,-0.85889 3.03407,-2.47603 3.79983,-3.59358 1.60905,-2.34826 3.98116,-8.133849 4.50464,-10.986991 l 0.36066,-1.961205 h -5.92369 -5.92251 l -0.73309,4.073272 c -0.8925,4.961964 -2.94533,9.205504 -5.01852,10.372934 -1.3624,0.76719 -1.71852,0.75411 -3.03492,-0.10843 -2.11758,-1.38749 -3.91959,-5.61604 -4.97726,-11.681188 -1.07558,-6.167941 -1.27004,-35.918099 -0.27933,-42.785852 0.84661,-5.86889 2.32108,-10.229515 4.23356,-12.520359 1.45704,-1.7452961 1.80401,-1.8841091 3.35786,-1.3506851 1.97121,0.676706 4.83435,5.6632311 5.44517,9.4830851 l 0.36419,2.275893 h 5.99794 c 6.86541,0 6.60179,0.428417 3.7138,-6.034477 -1.73026,-3.872069 -4.53772,-7.0423141 -7.28145,-8.2196161 -1.24156,-0.532733 -3.56252,-0.801459 -5.88951,-0.80499 z m -96.82859,2.132103 0.77788,0.777882 0.68595,-0.668271 c -0.48623,0.02382 -0.97394,-0.0065 -1.46383,-0.109611 z m 107.37478,16.2506561 -8.89849,8.898495 -8.8985,8.898495 h 17.79699 17.79699 l -8.89849,-8.898495 z m -111.36908,8.698131 c -2.42312,0.0136 -4.8075,0.426695 -6.13348,1.235182 -2.88694,1.760239 -5.41062,5.644976 -7.22723,11.127246 -1.57652,4.757708 -1.62375,5.330875 -1.85984,22.485496 -0.15364,11.163155 0.003,19.186725 0.42901,21.930365 1.29963,8.37631 4.30439,14.539266 8.44944,17.332616 1.66634,1.12295 2.84794,1.36718 6.62614,1.36718 3.89387,0 4.93386,-0.22812 6.78879,-1.48857 3.04706,-2.07053 5.94589,-7.243236 7.36748,-13.145026 0.38989,-1.61863 0.33575,-1.65948 -2.24289,-1.65948 h -2.6448 l -0.68949,3.43683 c -1.9552,9.735676 -6.51897,12.624826 -9.59741,6.075716 -2.63623,-5.608336 -3.15522,-10.628756 -3.1516,-30.457596 0.002,-10.219803 0.26955,-20.210077 0.5952,-22.201455 1.26628,-7.743502 3.82287,-12.974121 6.34092,-12.974121 2.44394,0 5.37672,5.821129 6.15587,12.219812 l 0.34887,2.866376 h 2.63065 c 3.13616,0 3.22213,-0.375634 1.41787,-6.217158 -1.49904,-4.853315 -4.48105,-9.287391 -7.24137,-10.767769 -1.47816,-0.792743 -3.93902,-1.179248 -6.36213,-1.165644 z m 111.36908,9.405297 -8.89849,8.898495 -8.8985,8.898493 h 17.79699 17.79699 l -8.89849,-8.898493 z m -112.34379,11.762512 2.31479,2.618872 c 1.27281,1.440755 4.62179,5.095964 7.44291,8.122966 2.82112,3.027002 5.29979,5.514822 5.50764,5.527672 0.20785,0.0129 3.83456,-3.642369 8.05932,-8.122967 l 7.68099,-8.146543 h -15.50223 z m 6.62967,3.017238 h 8.94093 8.94092 l -4.49521,4.525857 c -2.47261,2.489222 -4.638,4.512461 -4.81226,4.496391 -0.17425,-0.01599 -2.17485,-2.052651 -4.44571,-4.525857 z m -6.62967,15.086192 2.31479,2.61887 c 1.27281,1.44076 4.62179,5.09596 7.44291,8.12297 2.82112,3.027 5.29979,5.51482 5.50764,5.52767 0.20785,0.0129 3.83456,-3.64237 8.05932,-8.12297 l 7.68099,-8.14654 h -15.50223 z m 6.62967,3.01724 h 8.94093 8.94092 l -4.49521,4.52585 c -2.47261,2.48922 -4.638,4.51246 -4.81226,4.49639 -0.17425,-0.016 -2.17485,-2.05265 -4.44571,-4.52585 z" />
    </g>
  </g>
</svg>
