<?xml version="1.0" encoding="UTF-8" standalone="no"?>
<!-- Created with Inkscape (http://www.inkscape.org/) -->

<svg
   version="1.1"
   id="svg9"
   width="220"
   height="220"
   viewBox="0 0 220 220"
   sodipodi:docname="how.svg"
   inkscape:version="1.1 (c68e22c387, 2021-05-23)"
   xmlns:inkscape="http://www.inkscape.org/namespaces/inkscape"
   xmlns:sodipodi="http://sodipodi.sourceforge.net/DTD/sodipodi-0.dtd"
   xmlns="http://www.w3.org/2000/svg"
   xmlns:svg="http://www.w3.org/2000/svg">
  <defs
     id="defs13" />
  <sodipodi:namedview
     id="namedview11"
     pagecolor="#ffffff"
     bordercolor="#666666"
     borderopacity="1.0"
     inkscape:pageshadow="2"
     inkscape:pageopacity="0.0"
     inkscape:pagecheckerboard="0"
     showgrid="false"
     inkscape:zoom="0.90509668"
     inkscape:cx="12.153398"
     inkscape:cy="38.117475"
     inkscape:window-width="1350"
     inkscape:window-height="729"
     inkscape:window-x="0"
     inkscape:window-y="0"
     inkscape:window-maximized="0"
     inkscape:current-layer="g15"
     inkscape:lockguides="false"
     height="220px"
     width="10000000px" />
  <g
     inkscape:groupmode="layer"
     id="layer2"
     inkscape:label="Image 2"
     style="display:inline" />
  <g
     inkscape:groupmode="layer"
     id="layer1"
     inkscape:label="Image 1"
     style="display:inline" />
  <g
     inkscape:groupmode="layer"
     inkscape:label="Image"
     id="g15"
     style="display:inline">
    <path
       style="fill:#000000"
       d="m 319.41211,344.75195 v 1.62305 h 1.75391 c -0.584,-0.54168 -1.17021,-1.08105 -1.75391,-1.62305 z"
       id="path19450" />
    <path
       style="fill:#000000"
       d="m 487.8418,307.27734 1.47461,1.59766 0.002,-1.38086 c -0.49219,-0.0722 -0.98437,-0.14457 -1.47656,-0.2168 z"
       id="path19446" />
    <g
       id="g22466"
       transform="matrix(0.46990164,0,0,0.46990164,55.143173,240.5368)">
      <path
         id="path22056"
         style="fill:#000000"
         d="m 289.8329,-292.50397 c -4.06253,-0.0197 -8.22112,0.41628 -10.38477,1.32031 -5.76528,2.40889 -11.9879,11.18841 -14.74414,20.79883 l -0.81836,2.85156 h 9.77149 9.77148 l 1.18359,-5.25 c 1.64156,-7.27394 5.08139,-13.00813 8.5293,-14.2207 2.55754,-0.89943 3.12363,-0.67104 5.54102,2.22461 6.28457,7.52789 8.04664,19.53226 8.05664,54.86524 0.008,30.19215 -1.13789,41.45665 -5.06836,49.81836 -2.93787,6.25006 -5.31219,8.15731 -8.70508,6.99414 -3.45873,-1.18574 -7.81676,-9.61917 -9.41602,-18.21875 l -1.15625,-6.21289 h -9.84179 -9.84375 l 0.60937,2.75 c 2.81851,12.7301 9.05804,22.86981 15.91016,25.85547 4.09504,1.78434 16.89754,1.77064 20.31836,-0.0215 7.08601,-3.71229 13.05525,-13.67914 15.71875,-26.25 2.12919,-10.04892 2.06878,-58.5384 -0.0859,-69.12695 -2.64857,-13.01535 -8.5225,-23.13346 -15.53125,-26.75782 -1.7852,-0.92317 -5.75193,-1.40023 -9.81445,-1.41992 z m -102.95508,20.39844 c -4.28627,0.11507 -8.79765,1.10818 -12.84375,2.96289 -8.08023,3.70393 -16.35946,12.28661 -20.35547,21.09961 -3.22952,7.12255 -5.89467,17.14486 -5.91797,22.25976 l -0.0137,3.25 h 9.77148 9.77149 l 1.64062,-7.92968 c 1.72275,-8.33142 5.47973,-16.94429 9.14063,-20.95313 2.80879,-3.07574 9.32539,-6.0677 13.27539,-6.0957 1.87029,-0.0133 4.71023,1.14467 7.1582,2.91797 6.39753,4.63435 10.94228,15.58182 13.20703,31.81054 0.0192,0.1375 2.1023,0.25 4.62891,0.25 h 4.59375 l -0.71094,-5.25 c -2.77637,-20.51115 -10.97433,-36.27273 -21.84961,-42.01171 -3.14864,-1.66157 -7.20982,-2.42562 -11.49609,-2.31055 z m 84.86914,10.08008 -14.74609,14.74609 -14.7461,14.74609 h 29.49219 29.49023 l -14.74414,-14.74609 z m 0,30 -14.74609,14.74609 -14.7461,14.7461 h 29.49219 29.49023 l -14.74414,-14.7461 z m -125,19.49219 v 20 20 h 37.5 37.5 v -20 -20 h -37.5 z m 5,5 h 32.5 32.5 v 15 15 h -32.5 -32.5 v -15 z m -207.478523,0.0469 c -3.85615,-0.006 -7.7225,0.42622 -9.82031,1.30274 -7.14338,2.9847 -13.30857,13.29825 -16.13672,26.99023 -2.16082,10.46122 -2.22643,57.02974 -0.0957,68.16602 2.48201,12.972306 7.55809,21.960026 15.03125,26.617176 2.28131,1.42169 4.92744,1.87005 11.04883,1.87305 6.96817,0.003 8.58628,-0.3439 12.04101,-2.58398 2.19505,-1.4233 5.02985,-4.10313 6.29883,-5.95508 2.66643,-3.8914 6.59736,-13.478956 7.46485,-18.207026 l 0.5957,-3.25 h -9.81445 -9.81446 l -1.21484,6.75 c -1.47901,8.222696 -4.88084,15.254846 -8.31641,17.189446 -2.2577,1.27134 -2.84979,1.25162 -5.03125,-0.17773 -3.50914,-2.29927 -6.49337,-9.30856 -8.24609,-19.359376 -1.78242,-10.22117 -2.10463,-59.52148 -0.46289,-70.90234 1.40296,-9.7256 3.84636,-16.94984 7.01562,-20.7461 2.41452,-2.89221 2.98951,-3.12419 5.56446,-2.24023 3.26659,1.1214 8.01121,9.38479 9.02343,15.71484 l 0.60352,3.77149 h 9.93945 c 11.37697,0 10.94012,0.70995 6.1543,-10 -2.86729,-6.41658 -7.5216,-11.66818 -12.06836,-13.61914 -2.05745,-0.88282 -5.90361,-1.32814 -9.75977,-1.33399 z m 102.36524,5.38282 c -4.28346,-0.12068 -8.33822,0.63174 -11.45508,2.27734 -10.67894,5.63813 -19.06314,21.85869 -21.98828,42.54297 l -0.66992,4.75 h 4.64453 c 5.17941,0 4.88113,0.43695 6.39258,-9.39844 2.00708,-13.06059 9.15889,-23.64624 17.04101,-25.22266 4.07676,-0.81536 10.95214,1.75661 14.40625,5.38868 4.7657,5.01124 10.74219,20.10321 10.74219,27.12695 0,2.0005 0.49941,2.10547 10,2.10547 h 10 v -3.33985 c 0,-5.01533 -3.51794,-17.77669 -6.55078,-23.76171 -3.96979,-7.83399 -12.36034,-16.12582 -19.73828,-19.50782 -4.02911,-1.84692 -8.54076,-2.84026 -12.82422,-2.96093 z m -84.88672,25.07812 -14.74609,14.74609 -14.7461,14.7461 h 29.49219 29.49023 l -14.74414,-14.7461 z m 0,6.00586 9.24219,9.24219 9.24414,9.24414 h -18.48633 -18.48633 l 9.24219,-9.24414 z m 0,23.99414 -14.74609,14.74609 -14.7461,14.7461 h 29.49219 29.49023 l -14.74414,-14.7461 z m 50,4.49219 v 20 20 h 37.5 37.5 v -20 -20 h -37.5 z m -50,1.51367 9.24219,9.24219 9.24414,9.24414 h -18.48633 -18.48633 l 9.24219,-9.24414 z m 55,3.48633 h 32.5 32.5 v 15 15 h -32.5 -32.5 v -15 z m 162.205083,22 c -0.30147,0 -1.31172,0.69151 -2.2461,1.53711 -1.54573,1.39886 -1.5667,1.91718 -0.23046,5.75 2.22736,6.38881 1.2736,17.891226 -2.01758,24.335926 -6.88401,13.48009 -24.42561,20.77353 -38.17969,15.875 -3.53604,-1.25936 -4.16499,-1.23492 -5.77344,0.22071 -2.2062,1.99658 -1.49207,2.78292 4.82617,5.32422 7.57096,3.04516 20.9171,2.32145 28.75196,-1.56055 7.44193,-3.68731 14.81035,-11.66437 17.76758,-19.23633 3.14265,-8.04675 3.11594,-19.713236 -0.0605,-26.996086 -1.25942,-2.8875 -2.53643,-5.25 -2.83789,-5.25 z m 17.05078,16.999996 c -0.32967,0 -1.3625,0.69151 -2.29688,1.53711 -1.54573,1.39886 -1.5667,1.91718 -0.23046,5.75 2.0862,5.98393 1.26978,17.91346 -1.60743,23.50781 -3.33547,6.48536 -8.36924,11.50087 -14.8164,14.76172 -5.09106,2.57496 -6.84908,2.9333 -14.30469,2.9043 -5.02198,-0.0195 -9.45548,-0.5639 -10.83398,-1.32813 -1.99593,-1.10654 -2.61348,-1.03935 -4.27344,0.46289 -2.34697,2.12398 -1.69064,2.88504 4.6914,5.43945 7.26277,2.90692 19.92472,2.36171 27.53516,-1.18554 18.18045,-8.47396 25.80309,-27.48057 18.68945,-46.59961 -1.07436,-2.8875 -2.22305,-5.25 -2.55273,-5.25 z" />
      <path
         id="path22056-1"
         style="display:inline;fill:#000000"
         d="m 106.07227,-511.96484 -12.460942,12.42968 c -9.59343,9.57039 -12.210573,12.72993 -11.376953,13.73438 0.59551,0.71754 1.582599,1.30469 2.193359,1.30469 0.61076,0 5.730053,-4.60476 11.376954,-10.23243 l 10.267582,-10.23046 10.26562,10.23046 c 5.6469,5.62767 10.76815,10.23243 11.37891,10.23243 0.61076,0 1.59785,-0.58715 2.19336,-1.30469 0.83362,-1.00445 -1.78548,-4.16399 -11.37891,-13.73438 z m -10.000004,19.46875 v 15 15 h 2.5 2.500004 v -15 -15 h -2.500004 z m 15.000004,0 v 15 15 h 2.5 2.5 v -15 -15 h -2.5 z m -5,40.58789 c -11.665913,-0.017 -14.847237,0.35278 -23.414067,2.71679 -31.51831,8.69745 -53.828235,30.35862 -63.234375,61.39844 -2.30033,7.591 -2.673209,10.64708 -2.724609,22.29688 -0.07351,16.66812 1.466234,23.3178 8.933593,38.57421 4.315991,8.81794 6.986029,12.76023 13.111329,19.35352 9.12105,9.81794 15.82439,14.95552 26.1875,20.07031 9.19096,4.53626 15.930071,6.79007 25.482421,8.52344 28.510938,5.17359 59.436998,-4.56004 80.080078,-25.20312 34.30472,-34.30472 34.03661,-88.08386 -0.60937,-121.97071 -18.15814,-17.76028 -37.88029,-25.72186 -63.8125,-25.75976 z m 1.24804,7.45117 c 6.79369,0.0979 13.5962,0.77643 18.75196,2.00976 24.9016,5.9568 46.58008,24.10861 55.96093,46.85743 8.12329,19.69918 8.15931,42.03311 0.0996,61.23242 -10.60796,25.26962 -37.9407,45.86314 -64.14648,48.33008 -3.52796,0.33212 -7.98906,0.74388 -9.91406,0.91601 -4.52472,0.4046 -16.248134,-0.82949 -22.000004,-2.3164 -17.20024,-4.4464 -32.917205,-14.1817 -43.703125,-27.06836 -7.27551,-8.69253 -14.724957,-24.11551 -16.878907,-34.94727 -2.22379,-11.183 -1.520267,-27.67148 1.601563,-37.55273 9.13635,-28.9185 32.01566,-49.74104 61.525391,-55.99219 5.123069,-1.08524 11.909442,-1.56663 18.703122,-1.46875 z m 42.69727,23.23242 c -1.73886,0.19523 -5.32437,3.65268 -18.26367,16.36133 -14.9107,14.6449 -17.61746,17.74071 -16.5918,18.97656 0.6741,0.81223 1.79031,1.34469 2.48047,1.1836 0.69016,-0.1611 8.98788,-7.88689 18.43945,-17.16797 16.65341,-16.353 17.12832,-16.93033 15.33789,-18.6836 -0.44724,-0.43795 -0.82272,-0.735 -1.40234,-0.66992 z m -87.826174,0.0723 c -0.611814,-0.13104 -1.005663,0.0929 -1.43164,0.4707 -1.71267,1.51892 -0.86504,2.54958 15.55664,18.89648 9.55268,9.50919 17.850703,17.28907 18.439453,17.28907 0.58875,0 1.631907,-0.67328 2.316407,-1.49805 1.05108,-1.26648 -1.535047,-4.20442 -16.628907,-18.89648 -12.60852,-12.27287 -16.41651,-15.86861 -18.251953,-16.26172 z m 99.992184,11.09179 c -1.73459,0.0212 -5.48264,3.45181 -18.57617,16.5293 -16.33018,16.31019 -17.36727,17.56589 -15.875,19.21484 1.49885,1.6562 2.67587,0.71685 19.21875,-15.32226 9.69162,-9.39649 17.6211,-17.54613 17.6211,-18.11133 0,-0.56519 -0.78744,-1.52297 -1.74805,-2.12891 -0.18699,-0.11795 -0.39283,-0.18467 -0.64063,-0.18164 z m -111.55859,0.3281 c -0.581996,-0.0702 -0.970496,0.20962 -1.431641,0.62695 -1.85198,1.67602 -1.364187,2.26705 15.695313,19.04492 15.30849,15.05577 17.843769,17.17028 19.417969,16.19141 0.9958,-0.61922 1.687209,-1.57695 1.537109,-2.12695 -0.15011,-0.55 -8.027619,-8.6138 -17.505859,-17.91993 C 55.864888,-406.16253 52.370988,-409.5219 50.625,-409.73242 Z" />
    </g>
  </g>
</svg>
