<?xml version="1.0" encoding="UTF-8" standalone="no"?>
<!-- Created with Inkscape (http://www.inkscape.org/) -->

<svg
   version="1.1"
   id="svg9"
   width="220"
   height="150"
   viewBox="0 0 220 150"
   sodipodi:docname="paper.svg"
   inkscape:version="1.1 (c68e22c387, 2021-05-23)"
   xmlns:inkscape="http://www.inkscape.org/namespaces/inkscape"
   xmlns:sodipodi="http://sodipodi.sourceforge.net/DTD/sodipodi-0.dtd"
   xmlns="http://www.w3.org/2000/svg"
   xmlns:svg="http://www.w3.org/2000/svg">
  <defs
     id="defs13" />
  <sodipodi:namedview
     id="namedview11"
     pagecolor="#ffffff"
     bordercolor="#666666"
     borderopacity="1.0"
     inkscape:pageshadow="2"
     inkscape:pageopacity="0.0"
     inkscape:pagecheckerboard="0"
     showgrid="false"
     inkscape:zoom="0.43416668"
     inkscape:cx="186.5643"
     inkscape:cy="270.63339"
     inkscape:window-width="1350"
     inkscape:window-height="729"
     inkscape:window-x="0"
     inkscape:window-y="0"
     inkscape:window-maximized="0"
     inkscape:current-layer="g15" />
  <g
     inkscape:groupmode="layer"
     id="layer2"
     inkscape:label="Image 2"
     style="display:inline" />
  <g
     inkscape:groupmode="layer"
     id="layer1"
     inkscape:label="Image 1"
     style="display:none">
    <path
       style="display:inline;fill:#ffffff;stroke-width:0.891023"
       d="M 42.073963,96.313784 53.18931,69.894085 84.30537,82.985291 115.42142,96.076499 104.30607,122.4962 93.190726,148.9159 62.074674,135.8247 30.958616,122.73349 Z"
       id="path1254-7" />
  </g>
  <g
     inkscape:groupmode="layer"
     inkscape:label="Image"
     id="g15"
     style="display:inline">
    <g
       id="g302"
       transform="matrix(0.8908155,0,0,0.88912695,11.254197,6.425714)">
      <path
         style="display:inline;fill:#000000;stroke-width:0.858559"
         d="m 73.280491,50.819843 -3.454859,8.198022 9.406827,8.681352 v 6.226562 6.22461 h 4.335937 4.337891 l -0.06644,-8.285155 -0.06641,-8.285156 z"
         id="path5864"
         sodipodi:nodetypes="cccccccccc" />
      <path
         style="display:inline;fill:#000000;stroke-width:0.858559"
         d="m 60.535156,40.037109 c -0.326866,-0.0278 -6.587963,5.257957 -13.914062,11.746094 l -13.320313,11.796875 -0.01953,8.285156 -0.02148,8.285157 h 4.335937 4.337891 v -6.289063 -6.287109 l 17.891619,-16.657945 1.412799,0.802651 3.476326,-8.163662 c 0,0 -4.011907,-3.503934 -4.179178,-3.518156 z"
         id="path1252"
         sodipodi:nodetypes="scccccccccccss" />
      <path
         style="display:inline;fill:#000000;stroke-width:0.858559"
         d="m 38.878904,122.73047 c -0.01419,-0.0117 0.02061,0.033 0.03711,0.041 0.0054,0.003 0.01194,0.003 0.01758,0.006 -0.01825,-0.0156 -0.03619,-0.0315 -0.05469,-0.0469 z"
         id="path5466" />
      <path
         style="display:inline;fill:#000000;stroke-width:0.858559"
         d="m 33.355467,120.17383 c 0.01071,0.0241 0.02568,0.0603 0.03711,0.0859 0.007,2e-5 0.01432,-1.2e-4 0.02148,0 -0.01946,-0.0298 -0.03902,-0.0557 -0.05859,-0.0859 z"
         id="path5464" />
      <path
         style="display:inline;fill:#000000;stroke-width:0.858559"
         d="m 11.990232,107.53125 -3.3085933,2.7207 -3.3085937,2.72266 13.898437,12.26758 13.898438,12.26953 0.04492,6.16211 0.04492,6.16015 h 27.322269 27.324219 v -3.56452 L 77.093547,141.70481 60.582029,141.33619 H 41.933592 l -0.225845,-14.41545 -8.361113,-3.73119 -0.08688,2.98993 -4.703125,-4.10547 c -2.586408,-2.25881 -7.372273,-6.45635 -10.634766,-9.32617 z"
         id="path5462"
         sodipodi:nodetypes="ccccccccccccccccccc" />
      <path
         style="display:inline;fill:#000000;stroke-width:0.858559"
         d="m 41.970701,101.42578 c 0.02538,0.0451 0.05309,0.0875 0.08008,0.13086 l 0.002,-0.0859 c -0.02723,-0.0152 -0.05463,-0.03 -0.08203,-0.0449 z"
         id="path5460" />
      <path
         style="display:inline;fill:#000000;stroke-width:0.858559"
         d="m 37.75781,121.50391 c -0.0041,1.9e-4 -0.0094,-2e-4 -0.01367,0 0.029,0.0127 0.0577,0.0259 0.08008,0.0312 0.02463,0.006 -0.03395,-0.023 -0.06641,-0.0312 z"
         id="path5458" />
      <path
         style="display:inline;fill:#000000;stroke-width:0.858559"
         d="m 36.033207,112.85761 c -5.65e-4,-1.1e-4 -0.01132,-0.002 -0.01172,-0.002 0.0027,0.001 0.0088,0.005 0.01172,0.006 3.83e-4,-0.001 -3.84e-4,-0.003 0,-0.004 z"
         id="path5452" />
      <path
         style="display:inline;fill:#000000;stroke-width:0.858559"
         d="m 36.037107,112.84961 c -9.26e-4,0.003 -0.003,0.005 -0.0039,0.008 0.01286,0.002 0.181527,0.0453 0.261719,0.0645 -0.0984,-0.0283 -0.221893,-0.0622 -0.257813,-0.0723 z"
         id="path5450" />
      <path
         style="display:inline;fill:#000000;stroke-width:0.858559"
         d="m 42.157799,90.480006 -3.160058,7.690028 -5.68731,-2.814565 c -0.08913,8.029191 0.102106,22.526401 0.102106,22.526401 l 8.405391,-20.046585 z"
         id="path1146"
         sodipodi:nodetypes="cccccc" />
      <path
         style="fill:#000000;stroke-width:0.858559"
         d="M 69.823371,33.790459 82.18149,4.4168523 86.17914,6.0987513 90.17679,7.7806503 77.81867,37.154257 65.460551,66.527864 61.462901,64.845965 57.46525,63.164066 Z"
         id="path1258" />
      <path
         style="fill:#000000;stroke-width:0.858559"
         d="m 8.304404,79.358822 1.64775,-3.916481 15.9906,6.727596 15.990601,6.727596 -1.64775,3.916481 -1.647749,3.916481 -15.990601,-6.727596 -15.9906,-6.727596 z"
         id="path1256" />
      <path
         style="fill:#000000;stroke-width:0.858559"
         d="M 43.459381,96.454153 54.169752,70.997028 84.15213,83.61127 114.1345,96.225513 103.42413,121.68264 92.71376,147.13976 62.731386,134.52552 32.74901,121.91128 Z"
         id="path1254" />
      <g
         id="g1289"
         transform="matrix(0.86740973,0,0,0.84979764,-231.51877,-61.310559)">
        <path
           style="fill:#000000"
           d="m 490.43569,194.70249 c 0,-5.93111 -0.40273,-10 -0.98977,-10 -0.54438,0 -4.14898,2.025 -8.01023,4.5 -3.86125,2.475 -7.2293,4.5 -7.48455,4.5 -0.59409,0 -3.77066,-6.10778 -3.33919,-6.42048 0.17806,-0.12903 3.81124,-2.41576 8.07374,-5.0816 4.2625,-2.66585 7.75,-4.91491 7.75,-4.99792 0,-0.083 -3.4875,-2.33207 -7.75,-4.99792 -4.2625,-2.66584 -7.89568,-4.95257 -8.07374,-5.0816 -0.42668,-0.30922 2.74169,-6.42048 3.32869,-6.42048 0.24947,0 3.95041,2.23191 8.22432,4.9598 l 7.77073,4.9598 0.28383,-10.4598 0.28383,-10.4598 h 2.96617 2.96617 v 10 c 0,5.93111 0.40273,10 0.98977,10 0.54438,0 4.14898,-2.025 8.01023,-4.5 3.86125,-2.475 7.2293,-4.5 7.48455,-4.5 0.59409,0 3.77066,6.10778 3.33919,6.42048 -0.17806,0.12903 -3.81124,2.41576 -8.07374,5.0816 -4.2625,2.66585 -7.75,4.91491 -7.75,4.99792 0,0.083 3.4875,2.33207 7.75,4.99792 4.2625,2.66584 7.89568,4.95257 8.07374,5.0816 0.43147,0.3127 -2.7451,6.42048 -3.33919,6.42048 -0.25525,0 -3.6233,-2.025 -7.48455,-4.5 -3.86125,-2.475 -7.46585,-4.5 -8.01023,-4.5 -0.58704,0 -0.98977,4.06889 -0.98977,10 v 10 h -3 -3 z"
           id="path1250" />
        <path
           style="fill:#000000"
           d="m 435.43569,194.70249 c 0,-5.93111 -0.40273,-10 -0.98977,-10 -0.54438,0 -4.14898,2.025 -8.01023,4.5 -3.86125,2.475 -7.2293,4.5 -7.48455,4.5 -0.59409,0 -3.77066,-6.10778 -3.33919,-6.42048 0.17806,-0.12903 3.81124,-2.41576 8.07374,-5.0816 4.2625,-2.66585 7.75,-4.91491 7.75,-4.99792 0,-0.083 -3.4875,-2.33207 -7.75,-4.99792 -4.2625,-2.66584 -7.89568,-4.95257 -8.07374,-5.0816 -0.42668,-0.30922 2.74169,-6.42048 3.32869,-6.42048 0.24947,0 3.95041,2.23191 8.22432,4.9598 l 7.77073,4.9598 0.28383,-10.4598 0.28383,-10.4598 h 2.96617 2.96617 v 10 c 0,5.93111 0.40273,10 0.98977,10 0.54438,0 4.14898,-2.025 8.01023,-4.5 3.86125,-2.475 7.2293,-4.5 7.48455,-4.5 0.59409,0 3.77066,6.10778 3.33919,6.42048 -0.17806,0.12903 -3.81124,2.41576 -8.07374,5.0816 -4.2625,2.66585 -7.75,4.91491 -7.75,4.99792 0,0.083 3.4875,2.33207 7.75,4.99792 4.2625,2.66584 7.89568,4.95257 8.07374,5.0816 0.43147,0.3127 -2.7451,6.42048 -3.33919,6.42048 -0.25525,0 -3.6233,-2.025 -7.48455,-4.5 -3.86125,-2.475 -7.46585,-4.5 -8.01023,-4.5 -0.58704,0 -0.98977,4.06889 -0.98977,10 v 10 h -3 -3 z"
           id="path1248" />
      </g>
    </g>
  </g>
</svg>
