<?xml version="1.0" encoding="UTF-8" standalone="no"?>
<!-- Created with Inkscape (http://www.inkscape.org/) -->

<svg
   version="1.1"
   id="svg9"
   width="220"
   height="150"
   viewBox="0 0 220 150"
   sodipodi:docname="sign-rock.svg"
   inkscape:version="1.1 (c68e22c387, 2021-05-23)"
   xmlns:inkscape="http://www.inkscape.org/namespaces/inkscape"
   xmlns:sodipodi="http://sodipodi.sourceforge.net/DTD/sodipodi-0.dtd"
   xmlns="http://www.w3.org/2000/svg"
   xmlns:svg="http://www.w3.org/2000/svg">
  <defs
     id="defs13" />
  <sodipodi:namedview
     id="namedview11"
     pagecolor="#ffffff"
     bordercolor="#666666"
     borderopacity="1.0"
     inkscape:pageshadow="2"
     inkscape:pageopacity="0.0"
     inkscape:pagecheckerboard="0"
     showgrid="false"
     inkscape:zoom="0.3535534"
     inkscape:cx="342.23967"
     inkscape:cy="369.10973"
     inkscape:window-width="1350"
     inkscape:window-height="729"
     inkscape:window-x="0"
     inkscape:window-y="0"
     inkscape:window-maximized="0"
     inkscape:current-layer="g15"
     inkscape:lockguides="false" />
  <g
     inkscape:groupmode="layer"
     id="layer2"
     inkscape:label="Image 2"
     style="display:inline" />
  <g
     inkscape:groupmode="layer"
     id="layer1"
     inkscape:label="Image 1"
     style="display:inline" />
  <g
     inkscape:groupmode="layer"
     inkscape:label="Image"
     id="g15"
     style="display:inline">
    <g
       id="g232"
       transform="matrix(0.88788423,0,0,0.84853127,12.333078,11.360154)">
      <path
         id="path1018"
         style="display:inline;fill:#000000;stroke-width:0.649503"
         d="m 63.544922,100.98047 v 24.35547 24.35742 H 87.900391 112.25781 V 125.33594 100.98047 H 87.900391 Z m 42.470658,22.51273 c 0.0244,5.34997 0.77249,15.8695 0.46952,20.42865 -12.89038,0.60895 -26.133675,-0.085 -37.307755,-0.22727 0.246273,-4.49308 -0.03115,-16.49046 0.296895,-20.69576 6.445124,0.28852 35.88691,0.0943 36.54134,0.49438 z"
         sodipodi:nodetypes="cccccccccccccc" />
      <path
         style="display:inline;fill:#000000;stroke-width:0.649503"
         d="m 103.26953,49.355469 c -0.004,0.0061 -0.007,0.01286 -0.01,0.01953 0.007,-0.0067 0.0213,-0.01916 0.0215,-0.01953 0.002,-0.0033 -0.01,-0.0034 -0.0117,0 z"
         id="path10360" />
      <path
         style="display:inline;fill:#000000;stroke-width:0.649503"
         d="m 97.609375,54.736328 c 0.01522,-0.01208 -0.03024,0.02438 -0.04297,0.03906 -0.01199,0.01383 -0.02106,0.02972 -0.03125,0.04492 0.02225,-0.03185 0.04769,-0.05809 0.07422,-0.08398 z"
         id="path10358" />
      <path
         id="path9976"
         style="display:inline;fill:#000000;stroke-width:0.649503"
         d="M 83.029297,0.30664062 V 21.416016 42.525391 H 58.673828 34.316406 v 3.246093 3.248047 h 24.357422 24.355469 v 9.894531 9.894532 l -7.294922,7.318359 -7.296875,7.316406 2.421875,2.421875 2.421875,2.421875 4.875,-4.841797 4.873047,-4.839843 v 7.939453 7.939453 h 3.248047 3.248047 V 83.287109 72.089844 L 101.04688,60.554688 112.56836,49.019531 h 9.58789 9.58594 V 24.664062 0.30664062 H 107.38672 Z M 125.23807,22.677767 c -0.41675,6.871908 0.17268,15.511659 0.0978,20.267578 -13.9297,0.266477 -25.31418,-0.226345 -35.933558,-0.0547 0.324319,-6.929073 -0.319038,-15.196208 -0.0244,-20.487321 z M 89.496094,49.066406 103.26953,49.355469 89.376953,63.119141 Z"
         sodipodi:nodetypes="cccccccccccccccccccccccccccccccccccccccc" />
      <path
         id="path9980"
         style="fill:#ffffff;stroke-width:0.649503"
         d="m 89.525391,23.039062 v 3.574219 c 0.01754,-0.685935 0.01604,-1.372198 0.01172,-2.058593 -0.0042,-0.354472 3e-5,-0.709984 0,-1.064454 0.0039,-0.133677 -0.01385,-0.298076 0.0039,-0.451172 z m 5.076171,0 c -0.23896,0.08685 -0.123053,0.03744 -0.814453,0.326172 -0.153366,0.03478 -0.303402,0.08255 -0.458984,0.105469 -0.465825,0.06861 -0.83671,0.05729 -1.310547,0.05469 -0.531811,-0.0029 -1.064845,-0.01807 -1.595703,-0.05078 8e-6,0.0052 -8e-6,0.01042 0,0.01563 -6e-6,0.352627 -0.0042,0.705967 0,1.058594 0.0054,0.859813 0.01732,1.720848 -0.02344,2.580078 -0.0018,0.130011 -0.01215,0.242335 0.0098,0.369141 0.03661,0.211821 0.07307,0.213089 0.103516,0.460937 0.02047,0.166699 -0.02368,0.337552 -0.002,0.503907 -0.0079,0.389175 -0.05137,0.782476 0.04687,1.164062 0.0022,0.09278 0.01321,0.186647 0.0078,0.279297 -0.04942,0.843567 -0.400139,1.640416 -0.480469,2.480469 -0.01857,0.164843 -0.04914,0.328426 -0.05664,0.49414 -0.03167,0.696026 0.158619,1.36255 0.230468,2.048829 0.06044,0.307644 0.112426,0.618999 0.140626,0.93164 0.03161,0.350337 0.03034,0.704689 0.105468,1.050781 0.0039,0.358049 0.05973,0.714671 -0.01758,1.070313 -0.10248,1.050879 0.0084,-0.174881 -0.07227,1.041016 -0.01834,0.276527 -0.07166,0.549228 -0.08203,0.826171 -0.0088,0.235542 0.03334,0.471476 0.02344,0.707032 -0.001,0.325039 0.0069,0.454758 -0.02734,0.783203 -0.0111,0.106403 -0.0326,0.210664 -0.04883,0.316406 -0.01144,0.03731 -0.02906,0.07278 -0.03516,0.111328 -0.01194,0.07613 0.02108,0.156632 0.0039,0.232422 2.15e-4,0.111544 -0.0048,0.222639 -0.0078,0.333984 0.01739,5.24e-4 0.03236,-7.53e-4 0.05078,0 0.05517,0.0022 0.108972,0.008 0.164062,0.01172 0.166741,0.01149 0.355672,0.04539 0.523438,0.02148 0.275546,-0.03927 0.540127,-0.138801 0.820312,-0.150391 0.09848,-0.0162 0.195682,-0.03818 0.294922,-0.04883 0.131862,-0.0142 0.265899,6.95e-4 0.398438,-0.0039 0.09104,-0.0032 0.182477,-0.0087 0.273437,-0.01367 0.0769,-0.0042 0.154279,-0.0269 0.230469,-0.01563 0.126016,0.01866 0.244561,0.06901 0.367187,0.103515 -0.0084,-0.0048 -0.01714,-0.0085 -0.02539,-0.01367 -0.0084,-0.0022 -0.017,-0.0035 -0.02539,-0.0059 -0.01017,-0.0029 -0.03327,-0.02534 -0.02344,-0.02148 0.01752,0.0069 0.03282,0.01728 0.04883,0.02734 0.08235,0.02121 0.165436,0.03631 0.248047,0.05664 0.35679,0.08781 0.713641,0.170417 1.074218,0.242188 0.0019,7.53e-4 0.0039,0.0012 0.0059,0.002 h 12.720706 3.66797 c 0.37454,-0.05597 0.75263,-0.09113 1.1289,-0.08984 0.2325,-0.0024 0.46509,-0.01906 0.69727,-0.03125 0.095,-0.005 0.2285,-0.08947 0.2832,-0.01172 0.0407,0.05781 0.0612,0.08898 0.0918,0.132813 h 0.19336 c 1.1354,-0.17561 2.25076,-0.455696 3.38086,-0.660157 0.16798,-0.03039 0.30244,-0.01407 0.41797,0.01953 0.10214,-0.156272 0.19837,-0.21977 0.26953,0 0.24565,-0.02617 0.49202,-0.0551 0.73828,-0.07813 0.18393,-0.01719 0.36883,-0.02359 0.55273,-0.04102 0.1243,-0.01178 0.24639,-0.04077 0.3711,-0.04687 0.047,-0.0023 0.0937,0.0039 0.14062,0.0098 -8.1e-4,-2.1e-5 0.005,1.2e-5 0.004,0 0.0174,4.88e-4 0.0625,0.0028 0.12109,0.002 0.27099,-0.0039 0.52179,-0.01491 0.79492,-0.02734 0.15084,-0.0069 0.30216,-0.02664 0.45313,-0.02344 0.14015,0.0029 0.27846,0.02744 0.41797,0.04102 0.0999,0.04975 0.2148,0.134097 0.32422,0.154297 0.22915,0.0423 0.49368,-0.0054 0.70898,0.107422 0.38311,-0.0022 0.76547,0.01712 1.14844,0.0078 0.43501,-0.02938 0.8703,-0.09342 1.29687,0.03711 0.16844,0.05154 0.16548,0.04237 0.14258,0.109375 -0.16508,0.0049 3.1e-4,-0.0072 0.23242,0.08984 0.0229,0.0096 0.0684,0.0275 0.082,0.04492 0.005,-0.0091 0.009,-0.01817 0.0137,-0.02734 0.0324,-0.06696 0.0459,-0.142348 0.0859,-0.205079 0.009,-0.01438 -0.001,0.05743 0.0137,0.04883 0.039,-0.02271 -0.0524,-0.119776 -0.002,-0.134766 -0.007,-0.292894 -0.0146,-0.587386 0.0215,-0.878906 0.004,-0.211551 -0.035,-0.411266 -0.0625,-0.621094 -0.058,-0.442326 -0.047,-0.291428 -0.0469,-0.65625 v -0.273437 c -4e-5,-0.69566 -0.003,-1.390281 0,-2.085938 0.005,-0.557682 3.6e-4,-1.116272 -0.0156,-1.673828 0.002,-0.367249 -0.005,-0.399788 0.0195,-0.75586 0.0154,-0.223793 0.0536,-0.44572 0.0606,-0.669921 0.005,-0.153955 -0.003,-0.308857 -0.004,-0.462891 0.007,-0.164888 0.0145,-0.329252 0.0215,-0.494141 0.0163,-0.209541 0.0282,-0.419737 0.0488,-0.628906 0.0121,-0.122784 0.034,-0.244505 0.0469,-0.367187 v -1.078125 c -0.005,-0.03712 -0.007,-0.07444 -0.0137,-0.111329 -0.11675,-0.585471 -0.0306,-0.120115 -0.11133,-0.654296 -0.0164,-0.109096 -0.0434,-0.21642 -0.0547,-0.326172 -0.023,-0.220483 0.008,-0.447084 -0.004,-0.667969 0.0111,-0.413471 0.0292,-0.826607 0.0332,-1.240234 0.001,-0.160284 0.007,-0.420206 -0.0254,-0.595703 -0.0151,-0.08114 -0.0399,-0.158382 -0.0606,-0.238282 -0.0395,-0.20809 -0.0932,-0.475832 -0.11719,-0.673828 -0.1395,-1.149354 -0.0766,-2.310768 -0.0898,-3.464844 -10e-4,-0.113003 0.0125,-0.211103 0.0371,-0.294922 h -0.11719 c -0.007,0.06047 -0.0111,0.12111 -0.0176,0.181641 0.002,0.03713 0.002,0.07422 0.004,0.111328 5e-4,0.0092 0.0363,0.0019 0.0273,0.002 -0.0143,1.22e-4 -0.0286,-1.09e-4 -0.043,0 -0.0251,0.260212 -0.0354,0.177883 -0.041,0 -0.42097,0.0029 -0.84271,9.84e-4 -1.26368,0.0059 -0.42267,-10e-4 -0.84089,-0.05449 -1.26367,-0.0059 -0.32779,0.02685 -0.88456,0.07614 -1.19531,0.08594 -0.61615,0.01944 -1.23357,-0.02753 -1.84961,0.01367 -0.51106,0.01192 -1.02083,0.02581 -1.53125,-0.01367 -0.0843,-0.0065 -0.7953,-0.08594 -0.8789,-0.08984 -0.17253,-0.0081 -0.34682,-0.0019 -0.51954,-0.002 -0.74815,0.0093 -1.50084,0.07593 -2.24414,-0.03906 -0.11757,-0.01356 -0.23338,-0.03492 -0.35156,-0.04102 -0.27545,-0.01428 -0.55231,-4.53e-4 -0.82812,-0.002 -0.61,-0.0032 -0.47233,-0.0036 -1.17774,-0.0059 -0.25883,-8.95e-4 -0.51851,-0.0016 -0.77734,-0.002 -0.88454,0.0051 -0.98193,0.0037 -1.84766,0.01953 -0.62989,0.01153 -1.26929,0.06934 -1.89062,-0.06641 -0.0671,-0.01707 -0.13463,-0.04054 -0.20313,-0.05078 -0.60721,-0.09074 -1.20478,0.116121 -1.80664,0.150391 -0.21277,0.02751 -0.42703,0.04691 -0.63867,0.08203 -0.7393,0.122688 -0.59683,0.16532 -1.35742,0.21875 -0.24368,0.01708 -0.48827,-0.01211 -0.73242,-0.0039 -0.0632,0.0021 -0.12636,0.0088 -0.18946,0.01367 -0.1773,0.02373 -0.36007,0.05299 -0.53906,0.05469 -0.35757,0.0034 -0.52969,-0.02941 -0.89258,-0.08789 -0.843181,-0.135878 -0.60874,-0.09733 -1.490235,-0.310547 -0.219526,-0.08024 -0.414205,-0.152137 -0.611328,-0.21875 z m -5.076171,4.466797 v 3.205079 c 0.01105,-0.04822 0.02241,-0.09626 0.0332,-0.144532 0.06757,-0.30236 0.139214,-0.592319 0.115234,-0.902344 -0.11028,-0.390439 -0.05508,-0.817952 -0.04687,-1.21875 -0.01976,-0.159801 0.0206,-0.324262 0.002,-0.484374 -0.0023,-0.02002 -0.02535,-0.03152 -0.03125,-0.05078 -0.02079,-0.06745 -0.0364,-0.137551 -0.04883,-0.207031 -0.01584,-0.08855 -0.01864,-0.139709 -0.02344,-0.197266 z m 0,8.5625 v 2.957032 c 0.0022,-0.02742 0.006,-0.05458 0.0078,-0.08203 0.08224,-1.24411 -0.04233,0.159827 0.07227,-1.044921 0.07169,-0.326314 0.01877,-0.645659 0.01367,-0.97461 -0.06944,-0.280718 -0.07597,-0.568896 -0.09375,-0.855469 z m 35.249999,6.441407 c -0.0255,1.13e-4 -0.0442,0.0067 -0.0606,0.01563 h 0.13282 c -0.0256,-0.0069 -0.0529,-0.0157 -0.0723,-0.01563 z m -4.05664,0.002 c -2.2e-4,0.0037 9.5e-4,0.0089 0.002,0.01367 h 0.0274 c -0.01,-0.005 -0.0192,-0.0086 -0.0293,-0.01367 z" />
      <path
         id="path9978"
         style="fill:#ffffff;stroke-width:0.649503"
         d="m 92.257812,49.019531 c 0.0074,0.01585 0.01623,0.03095 0.02344,0.04687 0.0031,-0.01358 0.0064,-0.03052 0.0098,-0.04687 z m 2.441407,0.226563 c -0.06612,-0.003 -0.131136,-8.2e-4 -0.197266,0.002 -0.07218,0.02353 -0.203683,0.02487 -0.220703,0.02539 -0.141669,0.0043 -0.284087,-0.005 -0.425781,-0.0078 -0.468269,-9.5e-5 -0.93797,0.002 -1.40625,0.002 -0.111577,0.04493 -0.386389,0.05759 -0.453125,0.0625 -0.05512,2.09e-4 -0.111026,-0.0038 -0.166016,0 -0.0088,6.1e-4 -0.01494,0.01117 -0.02344,0.01367 -0.02809,0.0082 -0.05686,0.01643 -0.08594,0.01953 -0.196574,0.02114 -0.395068,0.01941 -0.591797,0.03906 -0.116111,0.0116 -0.22997,0.03001 -0.345703,0.04492 0.07005,-0.293717 -0.267907,0.140402 -0.310547,0.04492 -0.0121,-0.0271 -0.02317,-0.05607 -0.0332,-0.08398 0.0029,0.06167 -0.03236,0.05647 -0.167969,0.05664 -0.164327,-0.0012 -0.327901,0.0033 -0.492187,0.0039 v 1.177734 0.914063 0.759765 1.023438 c -4.4e-4,0.06138 0.05625,0.09617 0.07422,0.148438 0.07587,0.220632 0.0907,0.450655 0.0918,0.68164 -0.01865,0.248622 -0.01492,0.497055 -0.01172,0.746094 0.0019,0.268999 -0.002,0.539589 -0.002,0.808594 2.46e-4,0.312088 0.002,0.623457 0.002,0.935546 -2.4e-5,0.275722 0,0.552406 0,0.828126 -5e-6,0.295459 -10e-7,0.589305 0,0.884765 v 0.662109 c -0.0098,0.113757 0.01119,0.230135 0,0.34375 -0.01319,0.13394 -0.04784,0.265226 -0.06641,0.398438 0.03772,0.261543 -0.01947,0.52335 -0.04883,0.783203 -0.01042,0.228869 0.0343,0.458838 0.01563,0.6875 -0.006,0.07337 -0.0194,0.1458 -0.0293,0.21875 -0.03258,0.09081 -0.0221,0.1883 -0.03906,0.28125 -0.02257,0.123694 -0.05567,0.175768 -0.04687,0.296875 0.0087,0.09181 0.01153,0.183459 0.01172,0.275391 0.271595,-0.245212 0.563432,-0.468503 0.84375,-0.703125 l 0.230469,-0.167969 c 0.06547,-0.04165 0.132202,-0.07985 0.195312,-0.125 0.02551,-0.01825 0.04364,-0.04514 0.06836,-0.06445 0.0362,-0.02828 0.07739,-0.04946 0.113282,-0.07813 0.0083,-0.0066 0.01078,-0.01924 0.01758,-0.02734 0.03611,-0.04334 0.07421,-0.08446 0.111328,-0.126953 0.06088,-0.05784 0.121954,-0.116798 0.183594,-0.173828 0.162722,-0.150555 0.332275,-0.289126 0.509765,-0.421875 0.229288,-0.171491 0.04624,-0.01944 0.248047,-0.191406 l 0.002,-0.002 c 6.19e-4,-6.65e-4 0.0013,-0.0013 0.002,-0.002 0.10528,-0.113642 0.180059,-0.254905 0.289063,-0.365234 0.04785,-0.04843 0.103657,-0.08925 0.154297,-0.134766 0.07633,-0.06861 0.09222,-0.0901 0.162109,-0.164062 0.174412,-0.106359 0.250417,-0.285663 0.365234,-0.44336 0.0345,-0.04738 0.154289,-0.18583 0.205079,-0.24414 0.04573,-0.03755 0.09163,-0.07543 0.138671,-0.111328 0.131134,-0.100072 0.06561,-0.03419 0.171876,-0.128906 0.06666,-0.05942 0.125806,-0.129213 0.185546,-0.195313 0.0368,-0.03835 0.07218,-0.07726 0.109375,-0.115234 0.04997,-0.05101 0.102141,-0.0997 0.150391,-0.152344 0.120776,-0.131758 0.221852,-0.278688 0.347656,-0.40625 0.113796,-0.302425 0.367337,-0.538347 0.615235,-0.734375 0.327769,-0.25915 0.613041,-0.580295 0.949218,-0.828125 -0.0038,3e-4 -0.01452,0.0026 -0.01172,0 0.0049,-0.0046 0.08444,-0.07329 0.113281,-0.08594 0.03753,-0.01646 0.07953,-0.02284 0.115234,-0.04297 0.0163,-0.0092 -0.06534,0.02632 -0.05664,0.0098 0.01918,-0.03651 0.06274,-0.05484 0.09375,-0.08203 0.19309,-0.12202 0.330668,-0.301478 0.480468,-0.46875 0.11682,-0.130447 0.162056,-0.170767 0.294922,-0.304687 0.189635,-0.186349 0.159147,-0.147316 0.302735,-0.322266 0.02723,-0.03319 0.0503,-0.07064 0.08008,-0.101563 0.02962,-0.03075 0.06422,-0.05548 0.09766,-0.08203 0.105722,-0.103162 0.239986,-0.16953 0.357422,-0.261719 0.02923,-0.02294 0.05708,-0.04664 0.08398,-0.07227 0.04444,-0.04232 0.05015,-0.03807 0.02148,-0.04297 0.20435,-0.232975 0.451607,-0.420947 0.689453,-0.617187 1.972103,-1.984763 3.496263,-3.545789 4.097663,-4.197266 -0.29357,0.06359 -0.59593,0.03726 -0.89063,-0.0039 -0.0678,-1.5e-4 -0.13067,-0.03126 -0.19727,-0.03906 -0.005,-6e-4 0.0206,0.0049 0.0156,0.0059 -0.10116,0.01923 -0.21188,0.01468 -0.31445,0.01758 -0.18838,-0.0049 -0.37795,-0.0044 -0.56641,-0.0039 -0.25827,9.66e-4 -0.51517,7e-5 -0.77344,0 -0.246245,6e-6 -0.493987,1.4e-5 -0.740234,0 -0.247472,-0.0098 -0.496917,0.01418 -0.74414,0 -0.150359,-0.0086 -0.2743,-0.03169 -0.419922,-0.05469 -0.136958,-0.02729 -0.268157,0.01336 -0.40625,0.0059 -0.07919,-0.0043 -0.15755,-0.01814 -0.236328,-0.02734 -0.110216,-0.03751 -0.240259,-0.01888 -0.353516,-0.03906 -0.04465,-0.008 -0.0881,-0.0217 -0.132813,-0.0293 -0.08822,-0.01499 -0.242083,-0.01518 -0.314453,-0.01758 -0.313028,-0.0024 -0.624546,0.0042 -0.9375,0.0098 -0.04409,8e-4 -0.08873,0.0013 -0.132812,0.002 -0.01119,1.54e-4 -0.0322,0.01114 -0.0332,0 -0.0019,-0.02081 -0.0026,-0.04165 -0.0039,-0.0625 -0.005,0.02005 -0.01272,0.04136 -0.02148,0.06055 -0.02893,0.06336 -0.138141,-0.01903 -0.207031,-0.0293 -0.247447,-0.0369 -0.498617,-0.08252 -0.75,-0.09375 z m 2.910156,5.490234 c 0.01522,-0.01208 -0.03024,0.02438 -0.04297,0.03906 -0.01199,0.01383 -0.02106,0.02972 -0.03125,0.04492 0.02225,-0.03185 0.04769,-0.05809 0.07422,-0.08398 z" />
      <path
         style="fill:#000000;stroke-width:0.649503"
         d="m 167.46539,100.67889 v -6.796279 l -5.3584,3.222771 c -2.94713,1.772526 -5.54216,3.223328 -5.76674,3.224018 -0.49403,10e-4 -2.14376,-3.840987 -1.78998,-4.169149 0.13739,-0.127439 2.51494,-1.601338 5.28345,-3.275336 2.76851,-1.673991 5.03366,-3.14598 5.03366,-3.271087 0,-0.125108 -2.26515,-1.597097 -5.03366,-3.271088 -2.76851,-1.673998 -5.14606,-3.147897 -5.28345,-3.275336 -0.40129,-0.372237 1.32995,-4.170384 1.90091,-4.170384 0.28559,0 2.88063,1.464566 5.76673,3.254584 l 5.24748,3.254591 v -6.82686 -6.826851 h 2.27326 2.27326 v 6.495033 c 0,3.737789 0.26595,6.495035 0.62647,6.495035 0.34455,0 2.79285,-1.315245 5.44066,-2.922766 2.6478,-1.607521 4.98888,-2.922766 5.20238,-2.922766 0.21351,0 0.83835,0.870491 1.38853,1.93443 1.11909,2.164093 1.82132,1.466111 -6.96704,6.924889 l -3.0773,1.911423 2.10304,1.218475 c 1.15668,0.670158 3.64456,2.193354 5.52861,3.384875 l 3.42556,2.166412 -1.0066,1.946555 c -0.55363,1.070597 -1.18129,1.946561 -1.3948,1.946561 -0.2135,0 -2.55458,-1.315252 -5.20238,-2.922771 -2.64781,-1.607521 -5.09611,-2.922765 -5.44066,-2.922765 -0.36052,0 -0.62647,2.757246 -0.62647,6.495036 v 6.49503 h -2.27326 -2.27326 z"
         id="path9974" />
      <path
         style="fill:#000000;stroke-width:0.649503"
         d="m 130.44369,100.98014 c 0,-3.73779 -0.26594,-6.495036 -0.62646,-6.495036 -0.34456,0 -2.79285,1.315244 -5.44066,2.922765 -2.6478,1.607519 -4.98888,2.922771 -5.20239,2.922771 -0.2135,0 -0.83834,-0.870494 -1.38852,-1.934434 -1.1197,-2.16525 -1.83299,-1.45872 7.03182,-6.965211 l 3.14208,-1.951745 -3.14208,-1.827579 c -8.3386,-4.850096 -8.14681,-4.664078 -7.03182,-6.820221 0.55018,-1.063939 1.21203,-1.92607 1.47078,-1.915847 0.25875,0.0102 2.80866,1.45251 5.66647,3.205085 l 5.19603,3.186509 0.18435,-6.77736 0.18435,-6.777353 h 2.25129 2.25129 v 6.790187 6.790182 l 5.53747,-3.309474 c 3.04561,-1.820207 5.61842,-3.195199 5.71736,-3.055537 0.0989,0.139663 0.6716,1.040719 1.27258,2.002348 l 1.09268,1.748424 -5.51104,3.328829 c -3.03107,1.830853 -5.51104,3.435724 -5.51104,3.566385 0,0.13066 2.47997,1.735531 5.51104,3.566384 l 5.51104,3.328829 -1.09268,1.748424 c -0.60098,0.961631 -1.17364,1.862685 -1.27258,2.002345 -0.0989,0.13967 -2.67175,-1.235322 -5.71736,-3.055534 l -5.53747,-3.309474 v 6.790188 6.79018 h -2.27326 -2.27327 z"
         id="path9972" />
      <path
         id="path9970"
         style="fill:#ffffff;stroke-width:0.649503"
         d="m 75.246094,123.71289 c -0.156363,0.021 -0.313184,0.0415 -0.46875,0.0664 -0.433403,0.0693 -0.86283,0.17972 -1.306641,0.14062 h -1.296875 -2.082031 v 0.29297 c 0.478379,0.0429 0.581899,0.62809 -0.05273,0.88672 v 8.35547 8.60742 c 0.0016,0.002 10e-4,0.003 0,0.006 v 0.47656 c 0.07667,0.0981 0.147484,0.20029 0.160157,0.33008 -0.02437,-0.0236 -0.115264,-0.0693 -0.08984,-0.0469 0.06784,0.0598 0.150484,0.10379 0.238281,0.13672 0.08557,-0.033 0.181263,-0.1148 0.248047,-0.0605 0.03641,0.0296 0.04498,0.074 0.04687,0.12304 0.07998,-9.6e-4 0.123038,-0.006 0.169922,-0.01 0.03662,-0.11348 0.09051,-0.24336 0.201172,-0.41211 0.02657,-0.0403 0.09625,-0.004 0.144531,-0.008 0.570237,-0.048 1.137686,-0.12581 1.708985,-0.16211 0.105934,-0.0176 0.149978,-0.0263 0.208984,-0.0371 0.02737,-0.0167 0.05286,-0.024 0.06836,-0.0117 0.09105,-0.0133 0.132319,0.006 0.142578,0.0723 0.0037,0.024 0.0066,0.0721 0.0098,0.11133 0.05015,0 0.100254,0 0.150391,0 -0.0048,-0.0254 -0.0068,-0.0511 -0.01367,-0.0762 -0.0072,-0.0263 -0.05735,-0.0332 -0.103516,-0.0352 0.114227,-0.003 0.229321,0.008 0.34375,0.0117 0.573337,0.0248 1.145261,0.0571 1.71875,0.0781 0.543378,0.0199 0.722053,0.0186 0.896484,0.0215 0.0023,4e-5 0.0094,-4e-5 0.01172,0 0.262373,-8e-4 0.524747,-0.001 0.78711,-0.002 0.146405,-2e-5 0.359057,-0.11869 0.447265,-0.0137 0.02168,0.004 0.04227,0.007 0.06641,0.0137 0.0042,-1.9e-4 0.0055,2e-4 0.0098,0 0,0 0,0.002 0,0.002 0.02272,0.006 0.04663,0.0156 0.06445,0.0156 0.659864,0.002 1.32053,-0.0116 1.980469,-0.0293 0.104871,-0.0105 0.209265,-0.0232 0.314453,-0.0312 0.854205,-0.0653 1.708246,0.0106 2.5625,-0.0371 0.02079,-0.001 0.04172,-5.3e-4 0.0625,-0.002 0.0059,-6.2e-4 0.01172,-10e-4 0.01758,-0.002 0.123002,-0.0127 0.246678,-0.0223 0.369141,-0.0391 0.105445,-0.0145 0.208976,-0.0423 0.314453,-0.0566 0.106161,-0.0143 0.21388,0.004 0.320313,0.0137 0.668409,-0.0589 1.337994,-0.11145 2.009765,-0.0918 0.0019,-1.7e-4 0.0039,1.6e-4 0.0059,0 0.0925,-0.008 0.18466,-0.0167 0.277344,-0.0234 -0.0031,0.006 -0.01129,0.0181 -0.01563,0.0254 0.05208,8.7e-4 0.104177,-8.8e-4 0.15625,0 0.05966,-0.0646 0.118025,-0.13105 0.185547,-0.18555 0.01298,-0.0106 0.0341,0.002 0.05078,0.002 0.06016,0.001 0.119518,0.002 0.179688,0.002 0.352616,0.002 0.374212,0.001 0.746094,0 0.465897,-0.007 0.933107,-0.0359 1.396484,0.0371 0.195316,0.0589 -0.04932,-0.003 0.337891,0 0.314984,0.002 0.726897,0.31522 1.046875,0.26562 1.00705,0.11348 0.0078,0.008 0.558593,0.0508 0.157676,-7.2e-4 0.314838,-0.001 0.472657,-0.0117 0.02642,-3.7e-4 0.05886,3.9e-4 0.08594,0 0.209466,-0.0278 0.418731,-0.0597 0.628906,-0.0801 0.24482,-0.0237 0.497527,0.0274 0.742188,0.002 0.37617,0 0.737791,-3.6e-4 1.111328,0.004 0.595509,-0.001 1.192655,-0.0368 1.787109,0.006 0.325466,0.0349 0.380232,0.03 0.330079,0.1582 0.069,-0.002 0.138046,-0.002 0.207031,-0.004 0.01128,-0.0231 0.02077,-0.0523 0.0332,-0.0723 l 0.09961,0.0332 c 0.0072,0.002 0.01431,0.004 0.02148,0.006 0.0048,-8.4e-4 0.0096,-0.003 0.01172,0.002 0.05431,0.0136 0.109285,0.0249 0.164063,0.0371 0.03981,0.003 0.07963,0.006 0.119141,0.01 0.14866,0.0148 0.154733,0.0257 0.154296,0.0371 0.115071,0.013 0.247402,0.0313 0.460938,0.0586 0.08262,1.4e-4 0.165161,7.2e-4 0.248047,0.002 0.04352,5.6e-4 0.08733,0.002 0.130859,0.002 0.137642,-0.15188 0.25504,-0.0533 0.410156,-0.0566 0.416501,-0.009 0.667873,-0.0454 1.107422,-0.0898 0.572073,-0.072 0.825228,-0.11737 1.386712,-0.13867 0.35029,-0.0133 0.70087,0.0311 1.05079,0.0312 0.26887,-0.0249 0.52727,-0.0935 0.79687,-0.11719 0.27448,-0.0242 0.55529,0.0138 0.83008,0.002 0.0576,0.001 0.58542,0.0106 0.66992,0.0156 0.0224,0.001 0.0634,-0.0105 0.0664,0.0117 3.4e-4,0.002 -0.007,0.004 -0.008,0.006 0.0554,-0.0296 0.0524,-0.0244 0.26757,-0.0918 0.0697,0.0327 0.23935,-0.0719 0.28125,-0.084 0.007,-0.002 0.0106,0.0186 0.0176,0.0156 0.36314,-0.16338 0.0592,-0.0616 0.19922,-0.10742 0.18441,-0.0833 0.38781,-0.17473 0.58984,-0.20703 0.15274,-0.0245 0.31277,0.0326 0.46485,0 0.0535,-0.0115 0.1035,-0.0185 0.15039,-0.0215 0.0363,-0.002 0.0692,-3.2e-4 0.10156,0.002 0.006,-0.0221 0.012,-0.0443 0.0176,-0.0664 v -2.0957 c -0.0685,-0.19633 -0.15152,-0.38874 -0.18164,-0.59766 -0.0204,-0.14998 -0.0493,-0.30023 -0.0605,-0.45117 -0.011,-0.16078 -0.01,-0.32119 -0.01,-0.48242 1.4e-4,-0.73419 0.0585,-1.46503 0.1289,-2.19531 0.0554,-0.45465 0.0926,-0.91057 0.12305,-1.36719 v -1.13281 -3.79297 c -0.0736,-0.36439 -0.1564,-0.72633 -0.22852,-1.0918 -0.19519,-0.14927 -0.14868,-0.45279 -0.15234,-0.66015 -0.0221,-1.13873 -0.0802,-2.2775 -0.10938,-3.41602 -0.004,-0.16287 0.0213,-0.29618 0.0684,-0.39844 -0.0511,-0.004 -0.0938,-0.009 -0.11328,-0.0195 0.0269,-0.0184 0.0185,-0.015 -0.1289,0.0957 -0.0999,0.0619 -0.19647,0.13144 -0.30078,0.18554 -0.0255,0.0132 -0.0555,0.0107 -0.084,0.0137 -0.1607,0.0182 -0.37037,0.0319 -0.49609,-0.0918 -0.16906,-0.0486 -0.33607,-0.1019 -0.50391,-0.1543 -0.0323,-0.0101 -0.062,-0.0322 -0.0957,-0.0352 -0.0493,-0.004 -0.44763,0.0156 -0.48633,0.0176 -0.0917,0.005 -0.42401,0.0287 -0.50391,0 -0.0536,-0.0192 -0.10018,-0.0515 -0.14843,-0.082 -0.0439,-0.007 -0.0936,-0.0176 -0.12305,-0.0176 -0.65589,0.002 -1.31097,0.006 -1.9668,-0.004 -0.68336,-0.002 -1.368665,0.0547 -2.050777,0.006 -0.216986,-0.0287 -0.432455,-0.0715 -0.650391,-0.0918 -0.474571,-0.0443 -0.95702,-0.019 -1.431641,0.002 -0.221861,0.0266 -0.44151,0.0698 -0.664062,0.0898 -0.260806,0.0239 -0.530325,-0.0625 -0.791016,-0.01 -1.496807,0.0516 -3.009459,0.16456 -4.484375,-0.17188 -0.154099,-0.043 -0.278171,-0.0814 -0.402344,-0.11523 h -2.013671 z m 27.013676,0.17773 c -0.0127,-0.007 0.0196,0.0243 0.0332,0.0293 0.005,0.002 0.012,0.002 0.0176,0.004 -0.017,-0.0107 -0.0333,-0.0235 -0.0508,-0.0332 z m 3.09179,0.0918 c -0.0972,0.0698 -0.0316,0.025 -0.0566,0.043 0.0103,-0.005 0.0213,-0.01 0.0312,-0.0156 0.0111,-0.007 0.0359,-0.0354 0.0254,-0.0273 z m 0.41016,3.83789 c -0.0282,0.0151 -0.0318,0.0218 -0.29688,0.16016 0.0973,0.007 0.19736,0.004 0.29688,0.002 z M 105.42578,142.75 c -0.0578,0.002 -0.11573,0.005 -0.17383,0.002 0.015,0.13641 0.055,0.31345 0.0723,0.41211 0.003,0.0159 0.0183,0.0235 0.0312,0.0332 h 0.15625 c -0.041,-0.14238 -0.0396,-0.31256 -0.0859,-0.44727 z m -18.498046,0.41602 c -0.07448,-7e-4 -0.102952,0.0165 -0.164062,0.0195 -0.102287,0.005 -0.206184,0.009 -0.308594,0.01 -0.276737,0.002 -0.553332,-10e-4 -0.830078,-0.002 -0.0039,-1e-4 -0.0078,1e-4 -0.01172,0 -0.01177,8.9e-4 -0.02339,0.003 -0.03516,0.004 h 1.794922 c -0.08818,-0.008 -0.191967,-0.0179 -0.228516,-0.0215 -0.07248,-0.003 -0.144257,-0.009 -0.216797,-0.01 z" />
    </g>
  </g>
</svg>
