<?xml version="1.0" encoding="UTF-8" standalone="no"?>
<!-- Created with Inkscape (http://www.inkscape.org/) -->

<svg
   version="1.1"
   id="svg9"
   width="220"
   height="220"
   viewBox="0 0 220 220"
   sodipodi:docname="start.svg"
   inkscape:version="1.1 (c68e22c387, 2021-05-23)"
   xmlns:inkscape="http://www.inkscape.org/namespaces/inkscape"
   xmlns:sodipodi="http://sodipodi.sourceforge.net/DTD/sodipodi-0.dtd"
   xmlns="http://www.w3.org/2000/svg"
   xmlns:svg="http://www.w3.org/2000/svg">
  <defs
     id="defs13" />
  <sodipodi:namedview
     id="namedview11"
     pagecolor="#ffffff"
     bordercolor="#666666"
     borderopacity="1.0"
     inkscape:pageshadow="2"
     inkscape:pageopacity="0.0"
     inkscape:pagecheckerboard="0"
     showgrid="false"
     inkscape:zoom="0.25"
     inkscape:cx="-300"
     inkscape:cy="-334"
     inkscape:window-width="1350"
     inkscape:window-height="729"
     inkscape:window-x="0"
     inkscape:window-y="0"
     inkscape:window-maximized="0"
     inkscape:current-layer="g15"
     inkscape:lockguides="false"
     height="220px"
     width="10000000px" />
  <g
     inkscape:groupmode="layer"
     id="layer2"
     inkscape:label="Image 2"
     style="display:inline" />
  <g
     inkscape:groupmode="layer"
     id="layer1"
     inkscape:label="Image 1"
     style="display:inline" />
  <g
     inkscape:groupmode="layer"
     inkscape:label="Image"
     id="g15"
     style="display:inline">
    <g
       id="g17871"
       transform="matrix(0.48212514,0,0,0.48212514,-518.64051,-13.316489)">
      <path
         style="fill:#000000"
         d="m 377.48736,336.12405 v -30.26071 l 17.5,-17.47857 17.5,-17.47857 17.5,17.47857 17.5,17.47857 v 30.26071 30.26072 h -35 -35 z m 60,10.26072 v -10 h -17.5 -17.5 v -7.5 -7.5 h 17.5 17.5 v -5.76501 -5.765 l -12.5,-12.46999 -12.5,-12.46999 -12.5,12.46999 -12.5,12.46999 v 23.265 23.26501 h 25 25 z m -296.97974,-44.4797 -13.45195,-13.47969 3.43007,-3.53894 3.43007,-3.53894 10.05285,10.01864 c 5.52907,5.51024 10.49973,10.01863 11.04591,10.01863 0.54619,0 9.3072,-8.32326 19.46892,-18.49613 l 18.47586,-18.49612 -10.4499,-10.48558 -10.44989,-10.48558 3.43017,-3.53904 3.43018,-3.53904 13.78688,13.7605 13.78689,13.76051 -25.74595,25.76024 c -14.16027,14.16813 -25.98044,25.76024 -26.26705,25.76024 -0.28661,0 -6.57449,-6.06586 -13.97306,-13.4797 z m 216.69607,-20.30361 -14.75867,-14.78332 3.54217,-3.43321 3.54218,-3.43321 14.9617,14.93676 14.96171,14.93676 -3.17888,3.27976 c -1.74838,1.80388 -3.43373,3.27977 -3.74521,3.27977 -0.31149,0 -7.20774,-6.65249 -15.325,-14.78331 z m 29.92583,-1.83924 c -0.31543,-1.0326 -3.52158,-12.87118 -7.12478,-26.30796 -5.05534,-18.85199 -6.26198,-24.61427 -5.28433,-25.23529 1.49471,-0.94945 7.70507,-2.23871 8.20931,-1.70424 0.19201,0.20352 3.13571,10.89874 6.54156,23.76715 l 6.19246,23.3971 -3.98035,3.98035 c -3.49649,3.49649 -4.05007,3.75212 -4.55387,2.10289 z m 46.03167,-2.19943 -3.81091,-3.90273 6.31394,-23.72621 6.31394,-23.72621 4.0046,0.63975 c 2.20253,0.35186 4.35723,0.99185 4.78822,1.42218 0.67488,0.67386 -10.93152,46.42593 -13.04058,51.40558 -0.66577,1.57192 -1.22328,1.31418 -4.56921,-2.11236 z m -323.94174,-6.94414 -6.71427,-6.76611 25.98125,-25.96684 25.98124,-25.96683 7.01494,6.96119 7.01494,6.96118 -3.48622,3.48623 -3.48622,3.48622 -3.54121,-3.43228 -3.54121,-3.43227 -18.9617,18.942 -18.96171,18.942 3.4899,3.57397 3.48989,3.57398 -3.30346,3.20184 c -1.81691,1.76101 -3.51911,3.20184 -3.78268,3.20184 -0.26356,0 -3.50063,-3.04475 -7.19348,-6.76612 z m 298.26791,-34.05957 v -25.17431 h 5 5 v 25.17431 25.17432 l -2.5,-2.34863 -2.5,-2.34863 -2.5,2.34863 -2.5,2.34863 z M 88.487364,221.4202 v -20.07956 l 18.749996,0.27206 18.75,0.27207 0.30479,4.75 0.30479,4.75 H 112.06888 97.540834 l -0.27674,14.75 -0.27673,14.75 -4.25,0.3075 -4.25,0.3075 z m 201.477516,-2.01289 11.94626,-11.97746 -7.81847,-7.27254 c -15.29493,-14.22695 -24.79276,-18.32621 -42.10531,-18.17259 -18.55116,0.1646 -26.13282,3.91711 -44.55062,22.05012 l -12.55062,12.35656 -3.44938,-3.57299 -3.44938,-3.57298 13.59147,-13.32502 c 11.87055,-11.63783 14.65614,-13.83721 22,-17.37016 10.96733,-5.27613 22.56512,-7.64066 33.39394,-6.80829 16.77634,1.28953 28.44163,6.8214 42.27772,20.04878 l 9.35577,8.94418 11.94055,-11.90944 11.94055,-11.90945 v 27.23437 27.23437 H 305.25299 278.01862 Z M 69.146574,207.13477 c -0.35854,-7.8375 -0.65354,-16.6125 -0.65555,-19.5 l -0.004,-5.25 h 19.5 19.499996 v 4.5 4.5 H 93.133764 78.780494 l -0.64673,7.65088 c -0.35571,4.20798 -0.64674,10.95798 -0.64674,15 v 7.34912 h -3.84445 -3.84445 z"
         id="path17020"
         sodipodi:nodetypes="ccccccccccccccccccccccccccccccscccssscccccccsssscccccsssssssscssscccssssscccccccccccccsssccccccccccccccccccccccccccssscccsssscccccccccccccccccsscccc" />
      <path
         id="path17364"
         style="fill:#000000"
         d="m 247.48828,-66.027344 c -11.66591,-0.01705 -14.84723,0.352787 -23.41406,2.716797 -31.51831,8.69745 -53.82824,30.358618 -63.23438,61.3984376 -2.30033,7.591 -2.67321,10.647075 -2.72461,22.2968754 -0.0735,16.66811 1.46624,23.317808 8.9336,38.574218 4.31599,8.81793 6.98603,12.760226 13.11133,19.353516 9.12105,9.81794 15.82439,14.955523 26.1875,20.070312 9.19096,4.536268 15.92812,6.790068 25.48046,8.523438 28.51094,5.17359 59.43896,-4.56004 80.08204,-25.203125 34.30472,-34.30472 34.0366,-88.0838531 -0.60938,-121.970703 -18.15814,-17.76028 -37.88029,-25.721866 -63.8125,-25.759766 z m 1.24805,7.451172 c 6.79368,0.09788 13.5962,0.774483 18.75195,2.007813 24.9016,5.9568 46.57814,24.108602 55.95899,46.8574215 8.12329,19.699182 8.16126,42.0331215 0.10156,61.2324215 -10.60796,25.26962 -37.94071,45.863139 -64.14649,48.330078 -3.52796,0.332128 -7.98906,0.745838 -9.91406,0.917968 -4.52472,0.4046 -16.24813,-0.831448 -22,-2.318358 -17.20024,-4.4464 -32.9172,-14.179746 -43.70312,-27.066406 -7.27551,-8.69253 -14.72496,-24.115506 -16.87891,-34.947266 -2.22379,-11.18299 -1.52222,-27.6714824 1.59961,-37.5527344 9.13635,-28.9184996 32.01761,-49.7410376 61.52734,-55.9921876 5.12307,-1.08524 11.90944,-1.566627 18.70313,-1.46875 z m -55.24805,31.960938 v 2.5 2.5 h 11.58594 11.58789 l 12.125,11.5 c 6.66833,6.3249996 12.42295,11.4999996 12.78906,11.4999996 0.36611,0 1.27602,-0.73458248 2.02149,-1.63281248 1.19729,-1.44266002 -0.15832,-3.07229682 -11.62696,-13.96679712 l -12.98242,-12.332031 -12.75,-0.03516 z m 108,0 -12.75,0.05078 -12.75,0.05078 -12.93555,12.373047 c -11.21355,10.72687 -12.76239,12.5834388 -11.6289,13.94921875 0.71913,0.8665 1.77456,1.57617185 2.34375,1.57617185 0.56918,0 6.27386,-5.175 12.67773,-11.4999996 l 11.64258,-11.5 h 11.70117 11.69922 v -2.5 z m -118,15 v 2.4999996 2.5 h 12.69141 12.69336 L 219.16992,3.515625 c 8.69727,8.558572 10.53013,9.938316 11.80664,8.878906 0.83113,-0.68978 1.50219,-1.762662 1.49219,-2.382812 -0.01,-0.6201603 -4.92229,-5.7394534 -10.91797,-11.3769534 L 210.64844,-11.615234 h -13.58008 z m 100.68164,0 -10.5918,10.2499996 c -5.82497,5.6375 -10.75036,10.61514 -10.94531,11.0625 -0.19495,0.4473504 0.48005,1.4362454 1.5,2.1972654 1.69062,1.26143 2.73905,0.505722 11.8711,-8.5624998 l 10.01757,-9.9472656 h 12.73243 12.73437 v -2.5 -2.4999996 h -13.66016 z m -39.18164,60.5 c -4.08178,0 -5.06811,0.451492 -8.01758,3.669922 -3.6754,4.010559 -5.06533,8.913531 -4.05468,14.300781 0.72224,3.84986 4.78028,9.237052 7.99023,10.607422 3.83852,1.63872 8.87246,0.217969 12.27148,-3.462891 5.6936,-6.16569 5.62061,-15.122482 -0.17382,-21.445312 -2.94947,-3.21843 -3.93385,-3.669922 -8.01563,-3.669922 z"
         sodipodi:nodetypes="ssscsssssssssssssssssssccccccssccccccccssccccccccccccssccccccssccccccccsssssss" />
    </g>
    <path
       style="fill:#000000"
       d="m -207.84271,390.74473 v -37.5 h 12.73958 12.73958 l -17.76176,-17.78234 -17.76175,-17.78234 3.54375,-3.43474 3.54376,-3.43474 16.47842,16.45572 16.47842,16.45571 v -32.73863 -32.73864 h 5 5 v 32.73864 32.73863 l 16.47843,-16.45571 16.4784,-16.45572 3.54377,3.43474 3.54375,3.43474 -17.76175,17.78234 -17.76176,17.78234 h 15.23958 15.23958 v 37.5 37.5 h -37.5 -37.5 z m 65,0 v -27.5 h -27.5 -27.5 v 27.5 27.5 h 27.5 27.5 z"
       id="path17885" />
    <path
       style="fill:#000000"
       d="m -491.6707,535.77879 v -57.5 h -5 -5 v 10 10 h -5 -5 v -15 -15 h 15 15 v 25 25 h 15 15 v -25 -25 h -5 -5 v 10 10 h -5 -5 v -15 -15 h 15 15 v 30 30 h 12.5 12.5 v 37.5 37.5 h -37.5 -37.5 z"
       id="path18007" />
    <path
       style="fill:#000000"
       d="m 140.8685,610.07095 c -21.16951,-5.34916 -35.11311,-28.44377 -29.28252,-48.50027 2.45384,-8.44091 4.80241,-12.59082 10.34727,-18.2835 19.4968,-20.01662 52.32425,-14.1303 64.4962,11.56487 2.89373,6.1087 3.19313,7.63152 3.19313,16.24075 0,8.60923 -0.2994,10.13205 -3.19313,16.24075 -6.55978,13.84779 -19.3702,22.61831 -34.05764,23.31723 -4.26208,0.20282 -9.43857,-0.0581 -11.50331,-0.57983 z m 9.25408,-39.10596 v -30.12781 l -4.20752,0.67281 c -9.89499,1.58228 -19.01286,8.45682 -23.12263,17.43364 -2.96689,6.48048 -2.95716,17.83852 0.0209,24.34553 4.22192,9.22494 15.78856,17.58535 24.55927,17.75153 l 2.74998,0.0521 z M -14.877422,568.5928 v -37.5 H 2.6225781 20.122578 v -22.5 -22.5 h 5 5 v 22.5 22.5 h 15 15 v 37.5 37.5 h -37.5 -37.5 z m 65,0 v -27.5 h -27.5 -27.4999999 v 27.5 27.5 h 27.4999999 27.5 z"
       id="path18130" />
    <path
       style="fill:#000000;stroke-width:0.756828"
       d="m 47.75363,166.65205 v -26.48898 h 3.78414 3.78414 v 22.70484 22.70484 h 15.13656 15.13657 v -1.71231 c 0,-1.19875 -3.4051,-5.11176 -11.35271,-13.04613 L 62.88961,159.48052 74.42238,147.92973 85.95514,136.37892 h 7.38822 7.38824 v 11.35243 11.35242 H 86.93369 73.13578 l 7.53988,7.56828 7.53988,7.56829 h 6.25803 6.25803 v 3.78414 3.78413 h -3.78414 -3.78414 v 5.67621 5.67622 H 70.45847 47.75363 Z m 64.3304,11.35243 v -3.78414 h 22.70484 22.70484 v -7.56829 -7.56828 h -22.70486 -22.70482 v -11.35242 -11.35243 h 26.48897 26.48899 v 22.70485 22.70484 H 138.573 112.08403 Z m -64.3304,-56.58237 v -7.38854 l 11.35243,-11.3335 11.35241,-11.333504 11.35243,11.333504 11.35242,11.3335 v 7.38854 7.38853 h -3.78415 -3.78413 v -5.87962 -5.87961 l -7.56829,-7.53989 -7.56828,-7.53989 -7.56829,7.53989 -7.56827,7.53989 v 5.87961 5.87962 h -3.78414 -3.78414 z m 94.60352,-22.884604 v -15.13657 h -11.16048 -11.16046 l 13.05253,-13.05255 13.05254,-13.05253 13.05256,13.05253 13.05253,13.05255 h -11.16046 -11.16049 v 15.13657 15.136574 h -3.78414 -3.78413 z M 90.51442,78.597786 c -5.29939,-1.3725 -8.33673,-3.11533 -12.25115,-7.02976 -13.0553,-13.05528 -8.29624,-36.21502 8.77461,-42.70143 9.34993,-3.55269 17.20609,-2.38003 23.02261,3.43649 6.91952,6.91951 7.62925,17.20895 1.72126,24.9547 -4.509,5.91162 -15.84552,8.82028 -20.59287,5.28362 -3.81332,-2.84085 -5.22011,-5.42815 -5.15975,-9.48958 0.091,-6.12302 4.34883,-10.47416 10.86194,-11.09999 l 3.84052,-0.36903 v 3.88043 3.88043 h -2.59483 c -4.37201,0 -6.48186,3.68126 -3.70266,6.46046 1.53132,1.53132 6.10519,1.14698 9.01135,-0.75722 4.56678,-2.99227 6.14825,-9.59429 3.52881,-14.73137 -5.01914,-9.84315 -20.95869,-7.20959 -26.86624,4.43888 -6.42489,12.6686 2.79382,27.26378 17.21784,27.25951 4.80008,-0.002 11.06335,-2.09335 15.30026,-5.11031 l 2.27139,-1.61737 2.36327,2.94076 2.36326,2.94076 -3.50112,2.31905 c -7.77382,5.14915 -17.76315,7.14284 -25.6085,5.11097 z"
       id="path19071" />
    <path
       style="fill:#000000"
       d="m 319.41211,344.75195 v 1.62305 h 1.75391 c -0.584,-0.54168 -1.17021,-1.08105 -1.75391,-1.62305 z"
       id="path19450" />
    <g
       id="g19674"
       transform="translate(295.6417,-285.67114)">
      <path
         id="path18314-8"
         style="display:inline;fill:#000000;stroke-width:0.549369"
         d="m 217.72995,13.26415 v 20.60157 20.60156 h -17.85352 -17.85547 v 20.59961 20.60156 h 20.60157 20.60156 V 54.46728 13.26415 H 220.478 Z M 187.5151,59.95947 h 15.10743 15.10743 V 75.06689 90.17626 H 202.62253 187.5151 V 75.06689 Z m -33.13671,6.59375 c -11.30366,0 -13.93604,0.41843 -19.05274,3.0332 -5.1844,2.64938 -9.54748,7.69398 -12.15625,14.05469 -0.93713,2.28489 -1.28952,4.53523 -1.53515,9.83008 l -0.31836,6.86718 -4.91602,0.16016 -4.91601,0.16016 9.86132,9.91015 9.85938,9.90821 9.47851,-9.79493 9.47852,-9.79492 -4.67188,-0.1582 -4.67187,-0.15821 v -4.11718 c 0,-4.46183 0.80212,-7.0297 2.72852,-8.75 1.10679,-0.98839 2.23038,-1.12596 11.19921,-1.37305 l 9.97071,-0.27539 0.16993,-2.06055 0.17187,-2.06054 -9.50976,0.0137 c -10.47812,0.0133 -12.32391,0.44353 -15.49415,3.61719 -2.42727,2.42989 -3.08203,4.57161 -3.08203,10.08593 v 4.96289 h -5.76758 -5.76758 v -4.32031 c 0,-11.62942 4.17357,-19.15932 13.0586,-23.55273 l 4.18555,-2.06836 11.1543,-0.18555 11.15625,-0.18555 v -1.875 -1.87304 z m -93.21875,67.57226 v 2.7461 2.74609 h 20.60156 20.60156 v 17.85547 17.85351 h 20.60156 20.60157 v -20.5996 -20.60157 h -41.20313 z m 46.69726,5.49219 h 15.10742 15.10744 v 15.10938 15.10742 H 122.96432 107.8569 v -15.10742 z" />
      <path
         style="display:inline;fill:#000000;stroke-width:0.770547"
         d="m 12.67301,183.88215 c -1.94851,0 -2.15521,0.2126 -1.68407,1.73373 3.03802,9.80855 10.88329,17.37365 21.06061,20.31113 1.99435,0.57562 5.99967,0.91655 9.1397,0.77807 12.07403,-0.53247 23.03785,-9.18383 26.72533,-21.0892 0.47114,-1.52113 0.26444,-1.73373 -1.68408,-1.73373 -1.78065,0 -2.47703,0.53596 -3.5111,2.70445 -1.96132,4.11293 -7.35027,9.53675 -11.63044,11.70567 -7.2127,3.65495 -16.17302,3.59902 -23.56637,-0.14748 -4.02359,-2.0389 -9.4248,-7.54517 -11.33848,-11.55819 -1.03408,-2.16849 -1.73046,-2.70445 -3.5111,-2.70445 z"
         id="path19448-8" />
    </g>
    <path
       style="fill:#000000"
       d="m 487.8418,307.27734 1.47461,1.59766 0.002,-1.38086 c -0.49219,-0.0722 -0.98437,-0.14457 -1.47656,-0.2168 z"
       id="path19446" />
    <g
       id="g20275"
       transform="translate(72,-592)">
      <g
         id="g19584"
         transform="matrix(0.49433836,0,0,0.49433836,-91.96399,-37.558352)">
        <path
           style="fill:#000000"
           d="m 310.1582,247.375 c -2.52874,0 -2.79698,0.27591 -2.18554,2.25 3.94267,12.72933 14.12411,22.54717 27.33203,26.35938 2.58823,0.74703 7.78626,1.18947 11.86133,1.00976 15.66943,-0.69103 29.89807,-11.91859 34.68359,-27.36914 0.61144,-1.97409 0.3432,-2.25 -2.18555,-2.25 -2.31089,0 -3.21464,0.69555 -4.55664,3.50977 -2.54536,5.33768 -9.53904,12.37661 -15.09375,15.1914 -9.3605,4.74332 -20.98903,4.67073 -30.58398,-0.1914 -5.22172,-2.64605 -12.23131,-9.79197 -14.71485,-15 -1.34201,-2.81422 -2.24575,-3.50977 -4.55664,-3.50977 z"
           id="path19448" />
        <path
           style="fill:#000000"
           d="m 434.41211,76.375 v 55 55 h -22.5 -22.5 v 5 5 h 22.5 22.5 v 15 15 h 37.5 37.5 v -37.5 -37.5 h -32.5 -32.5 v -37.5 -37.5 h -5 z"
           id="path19281" />
      </g>
      <g
         id="g20195"
         transform="translate(-13.003405,-2)">
        <path
           id="path19751"
           style="fill:#000000;stroke-width:0.500382"
           d="m 78.898753,134.43535 c -4.0337,0.044 -8.12076,0.51847 -11.48828,1.41406 -8.86793,2.35844 -17.85088,8.13276 -23.52539,15.12305 -2.82693,3.48241 -6.90886,11.58161 -8.1914,16.25 -0.6688,2.4344 -0.89268,5.07722 -0.88867,10.50781 0.006,8.50985 0.94454,12.64374 4.36523,19.21875 6.73711,12.94956 19.05084,21.61224 33.79687,23.77539 8.73891,1.28195 18.16635,-0.27196 26.36329,-4.34375 11.242127,-5.58447 19.365177,-15.34191 22.886707,-27.49218 0.96558,-3.33155 1.12652,-5.03648 1.10352,-11.65821 -0.0259,-7.43611 -0.0947,-7.95836 -1.6875,-12.63281 -4.88396,-14.33305 -16.5929,-25.0899 -31.560547,-28.99609 -3.15914,-0.82446 -7.14012,-1.20998 -11.17383,-1.16602 z m 75.437497,1.74414 -12.24218,0.13477 -12.24219,0.13476 -0.13281,12.44727 -0.13477,12.44726 4.5,4.56641 4.49805,4.56445 7.15039,-7.13086 7.15039,-7.1289 2.58789,2.58789 2.58789,2.58789 -7.0039,7.25391 -7.00586,7.25585 6.15625,6.16993 6.15625,6.17187 12.36132,-12.35351 12.35938,-12.35352 -7.94141,-8.28906 c -4.36761,-4.55923 -10.38547,-10.7142 -13.37304,-13.67774 z m -75.275387,2.02735 c 4.11262,-0.0342 8.21577,0.54861 12.11915,1.80468 2.29277,0.7378 2.34622,0.80093 2,2.34961 -0.79544,3.55793 -0.32327,8.47524 1.0996,11.46875 3.49617,7.35554 12.088717,11.85437 19.837897,10.38477 1.46574,-0.27797 2.84629,-0.32363 3.06835,-0.10156 0.22206,0.22206 0.88303,2.29899 1.46875,4.61523 1.46349,5.78731 1.1607,14.91436 -0.68359,20.59375 -4.58707,14.12561 -16.26755,24.27762 -31.320307,27.2207 -19.29924,3.77336 -39.54586,-7.55601 -45.8418,-25.65039 -1.93255,-5.55404 -2.43895,-9.17497 -2.14258,-15.30859 0.41413,-8.57041 2.80002,-14.95348 8.22071,-21.99805 7.40839,-9.62777 19.83597,-15.27614 32.17382,-15.3789 z m 18.31836,4.41992 c 0.43573,-0.0437 1.10656,0.30148 2.13477,0.90039 5.990977,3.48957 10.530367,7.76305 14.074217,13.24609 1.50752,2.33242 1.85986,3.22506 1.38672,3.52539 -0.94426,0.59936 -6.91739,0.42955 -8.64063,-0.24609 -6.20658,-2.43348 -9.757807,-7.29158 -9.757807,-13.34766 0,-2.85382 0.0765,-4.00521 0.80273,-4.07812 z" />
        <path
           style="display:inline;fill:#000000;stroke-width:0.35717"
           d="m 177.42681,146.00665 -1.04904,-1.11086 13.75105,-13.52054 13.75105,-13.52055 -2.56006,-2.56955 -2.56005,-2.56955 -13.7152,13.62432 -13.7152,13.62431 -1.22608,-1.27407 -1.22609,-1.27407 13.68617,-13.45426 13.68619,-13.45426 -2.43201,-2.4109 -2.43201,-2.4109 h 9.90816 9.90816 v 9.72331 9.7233 l -2.48687,-2.46782 -2.48689,-2.46782 -13.57449,13.46038 c -7.46597,7.40321 -13.71023,13.46038 -13.87613,13.46038 -0.16589,0 -0.77369,-0.49988 -1.35066,-1.11085 z"
           id="path19950" />
      </g>
    </g>
  </g>
</svg>
